<svg width="96" height="18" viewBox="0 0 96 18" fill="none" xmlns="http://www.w3.org/2000/svg">
<path d="M5.12195 1.17073V1.90244H4.39024V1.17073H5.12195ZM5.12195 1.90244V2.63415H4.39024V1.90244H5.12195ZM5.12195 2.63415V3.36585H4.39024V2.63415H5.12195ZM5.12195 3.36585V4.09756H4.39024V3.36585H5.12195ZM5.12195 4.09756V4.82927H4.39024V4.09756H5.12195ZM5.12195 4.82927V5.56098H4.39024V4.82927H5.12195ZM5.12195 5.56098V6.29268H4.39024V5.56098H5.12195ZM5.12195 6.29268V7.02439H4.39024V6.29268H5.12195ZM5.85366 6.29268V7.02439H5.12195V6.29268H5.85366ZM6.58537 6.29268V7.02439H5.85366V6.29268H6.58537ZM7.31707 6.29268V7.02439H6.58537V6.29268H7.31707ZM8.04878 6.29268V7.02439H7.31707V6.29268H8.04878ZM5.12195 7.7561V8.48781H4.39024V7.7561H5.12195ZM4.39024 7.7561V8.48781H3.65854V7.7561H4.39024ZM4.39024 7.02439V7.7561H3.65854V7.02439H4.39024ZM5.12195 7.02439V7.7561H4.39024V7.02439H5.12195ZM5.12195 8.48781V9.21951H4.39024V8.48781H5.12195ZM4.39024 8.48781V9.21951H3.65854V8.48781H4.39024ZM3.65854 8.48781V9.21951H2.92683V8.48781H3.65854ZM2.92683 8.48781V9.21951H2.19512V8.48781H2.92683ZM2.19512 8.48781V9.21951H1.46341V8.48781H2.19512ZM0.731707 6.29268V7.02439H0V6.29268H0.731707ZM1.46341 6.29268V7.02439H0.731707V6.29268H1.46341ZM2.19512 6.29268V7.02439H1.46341V6.29268H2.19512ZM2.92683 6.29268V7.02439H2.19512V6.29268H2.92683ZM3.65854 6.29268V7.02439H2.92683V6.29268H3.65854ZM4.39024 6.29268V7.02439H3.65854V6.29268H4.39024ZM3.65854 7.7561V8.48781H2.92683V7.7561H3.65854ZM3.65854 7.02439V7.7561H2.92683V7.02439H3.65854ZM2.92683 7.02439V7.7561H2.19512V7.02439H2.92683ZM2.19512 7.02439V7.7561H1.46341V7.02439H2.19512ZM2.19512 7.7561V8.48781H1.46341V7.7561H2.19512ZM2.92683 7.7561V8.48781H2.19512V7.7561H2.92683ZM4.39024 1.90244V2.63415H3.65854V1.90244H4.39024ZM4.39024 2.63415V3.36585H3.65854V2.63415H4.39024ZM3.65854 2.63415V3.36585H2.92683V2.63415H3.65854ZM3.65854 3.36585V4.09756H2.92683V3.36585H3.65854ZM3.65854 4.09756V4.82927H2.92683V4.09756H3.65854ZM2.92683 3.36585V4.09756H2.19512V3.36585H2.92683ZM2.92683 4.09756V4.82927H2.19512V4.09756H2.92683ZM2.19512 4.09756V4.82927H1.46341V4.09756H2.19512ZM2.19512 4.82927V5.56098H1.46341V4.82927H2.19512ZM2.19512 5.56098V6.29268H1.46341V5.56098H2.19512ZM3.65854 5.56098V6.29268H2.92683V5.56098H3.65854ZM4.39024 5.56098V6.29268H3.65854V5.56098H4.39024ZM4.39024 4.82927V5.56098H3.65854V4.82927H4.39024ZM4.39024 4.09756V4.82927H3.65854V4.09756H4.39024ZM4.39024 3.36585V4.09756H3.65854V3.36585H4.39024ZM3.65854 4.82927V5.56098H2.92683V4.82927H3.65854ZM2.92683 5.56098V6.29268H2.19512V5.56098H2.92683ZM2.92683 4.82927V5.56098H2.19512V4.82927H2.92683ZM8.04878 15.0732V15.8049H7.31707V15.0732H8.04878ZM8.04878 15.8049V16.5366H7.31707V15.8049H8.04878ZM8.04878 17.2683V18H7.31707V17.2683H8.04878ZM7.31707 17.2683V18H6.58537V17.2683H7.31707ZM6.58537 17.2683V18H5.85366V17.2683H6.58537ZM5.85366 17.2683V18H5.12195V17.2683H5.85366ZM5.12195 17.2683V18H4.39024V17.2683H5.12195ZM5.12195 16.5366V17.2683H4.39024V16.5366H5.12195ZM4.39024 16.5366V17.2683H3.65854V16.5366H4.39024ZM3.65854 16.5366V17.2683H2.92683V16.5366H3.65854ZM3.65854 15.8049V16.5366H2.92683V15.8049H3.65854ZM2.92683 15.8049V16.5366H2.19512V15.8049H2.92683ZM2.92683 15.0732V15.8049H2.19512V15.0732H2.92683ZM2.92683 14.3415V15.0732H2.19512V14.3415H2.92683ZM2.19512 14.3415V15.0732H1.46341V14.3415H2.19512ZM2.19512 13.6098V14.3415H1.46341V13.6098H2.19512ZM2.19512 12.878V13.6098H1.46341V12.878H2.19512ZM2.19512 12.1463V12.878H1.46341V12.1463H2.19512ZM2.19512 11.4146V12.1463H1.46341V11.4146H2.19512ZM2.19512 10.6829V11.4146H1.46341V10.6829H2.19512ZM2.19512 9.95122V10.6829H1.46341V9.95122H2.19512ZM2.19512 9.21951V9.95122H1.46341V9.21951H2.19512ZM2.92683 9.21951V9.95122H2.19512V9.21951H2.92683ZM3.65854 9.21951V9.95122H2.92683V9.21951H3.65854ZM4.39024 9.21951V9.95122H3.65854V9.21951H4.39024ZM5.12195 9.21951V9.95122H4.39024V9.21951H5.12195ZM5.12195 9.95122V10.6829H4.39024V9.95122H5.12195ZM5.12195 10.6829V11.4146H4.39024V10.6829H5.12195ZM5.12195 11.4146V12.1463H4.39024V11.4146H5.12195ZM5.12195 12.1463V12.878H4.39024V12.1463H5.12195ZM5.12195 12.878V13.6098H4.39024V12.878H5.12195ZM5.12195 13.6098V14.3415H4.39024V13.6098H5.12195ZM5.12195 14.3415V15.0732H4.39024V14.3415H5.12195ZM5.85366 14.3415V15.0732H5.12195V14.3415H5.85366ZM5.85366 15.0732V15.8049H5.12195V15.0732H5.85366ZM6.58537 15.0732V15.8049H5.85366V15.0732H6.58537ZM6.58537 15.8049V16.5366H5.85366V15.8049H6.58537ZM7.31707 15.8049V16.5366H6.58537V15.8049H7.31707ZM7.31707 15.0732V15.8049H6.58537V15.0732H7.31707ZM8.04878 16.5366V17.2683H7.31707V16.5366H8.04878ZM7.31707 16.5366V17.2683H6.58537V16.5366H7.31707ZM6.58537 16.5366V17.2683H5.85366V16.5366H6.58537ZM5.85366 16.5366V17.2683H5.12195V16.5366H5.85366ZM5.85366 15.8049V16.5366H5.12195V15.8049H5.85366ZM5.12195 15.8049V16.5366H4.39024V15.8049H5.12195ZM5.12195 15.0732V15.8049H4.39024V15.0732H5.12195ZM4.39024 15.0732V15.8049H3.65854V15.0732H4.39024ZM4.39024 15.8049V16.5366H3.65854V15.8049H4.39024ZM3.65854 15.0732V15.8049H2.92683V15.0732H3.65854ZM4.39024 14.3415V15.0732H3.65854V14.3415H4.39024ZM4.39024 13.6098V14.3415H3.65854V13.6098H4.39024ZM3.65854 14.3415V15.0732H2.92683V14.3415H3.65854ZM3.65854 13.6098V14.3415H2.92683V13.6098H3.65854ZM4.39024 12.878V13.6098H3.65854V12.878H4.39024ZM4.39024 12.1463V12.878H3.65854V12.1463H4.39024ZM4.39024 11.4146V12.1463H3.65854V11.4146H4.39024ZM4.39024 10.6829V11.4146H3.65854V10.6829H4.39024ZM4.39024 9.95122V10.6829H3.65854V9.95122H4.39024ZM3.65854 9.95122V10.6829H2.92683V9.95122H3.65854ZM2.92683 9.95122V10.6829H2.19512V9.95122H2.92683ZM2.92683 10.6829V11.4146H2.19512V10.6829H2.92683ZM2.92683 11.4146V12.1463H2.19512V11.4146H2.92683ZM2.92683 12.1463V12.878H2.19512V12.1463H2.92683ZM2.92683 12.878V13.6098H2.19512V12.878H2.92683ZM2.92683 13.6098V14.3415H2.19512V13.6098H2.92683ZM3.65854 12.878V13.6098H2.92683V12.878H3.65854ZM3.65854 12.1463V12.878H2.92683V12.1463H3.65854ZM3.65854 11.4146V12.1463H2.92683V11.4146H3.65854ZM3.65854 10.6829V11.4146H2.92683V10.6829H3.65854ZM8.04878 4.82927V5.56098H7.31707V4.82927H8.04878ZM7.31707 4.82927V5.56098H6.58537V4.82927H7.31707ZM7.31707 5.56098V6.29268H6.58537V5.56098H7.31707ZM8.04878 5.56098V6.29268H7.31707V5.56098H8.04878ZM6.58537 5.56098V6.29268H5.85366V5.56098H6.58537ZM5.85366 5.56098V6.29268H5.12195V5.56098H5.85366ZM5.85366 4.82927V5.56098H5.12195V4.82927H5.85366ZM6.58537 4.82927V5.56098H5.85366V4.82927H6.58537ZM2.19512 3.36585V4.09756H1.46341V3.36585H2.19512ZM2.92683 2.63415V3.36585H2.19512V2.63415H2.92683ZM3.65854 1.90244V2.63415H2.92683V1.90244H3.65854ZM4.39024 1.17073V1.90244H3.65854V1.17073H4.39024ZM1.46341 4.82927V5.56098H0.731707V4.82927H1.46341ZM1.46341 5.56098V6.29268H0.731707V5.56098H1.46341ZM0.731707 5.56098V6.29268H0V5.56098H0.731707ZM0.731707 4.82927V5.56098H0V4.82927H0.731707ZM5.12195 0.439025V1.17073H4.39024V0.439025H5.12195ZM0.731707 7.02439V7.7561H0V7.02439H0.731707ZM1.46341 7.02439V7.7561H0.731707V7.02439H1.46341ZM5.85366 7.02439V7.7561H5.12195V7.02439H5.85366ZM6.58537 7.02439V7.7561H5.85366V7.02439H6.58537ZM7.31707 7.02439V7.7561H6.58537V7.02439H7.31707ZM8.04878 7.02439V7.7561H7.31707V7.02439H8.04878ZM10.9842 17.2683V18H10.2525V17.2683H10.9842ZM10.9842 16.5366V17.2683H10.2525V16.5366H10.9842ZM10.9842 15.8049V16.5366H10.2525V15.8049H10.9842ZM10.9842 15.0732V15.8049H10.2525V15.0732H10.9842ZM10.9842 14.3415V15.0732H10.2525V14.3415H10.9842ZM10.9842 13.6098V14.3415H10.2525V13.6098H10.9842ZM10.9842 12.878V13.6098H10.2525V12.878H10.9842ZM10.9842 12.1463V12.878H10.2525V12.1463H10.9842ZM10.9842 11.4146V12.1463H10.2525V11.4146H10.9842ZM10.9842 10.6829V11.4146H10.2525V10.6829H10.9842ZM10.9842 9.95122V10.6829H10.2525V9.95122H10.9842ZM10.9842 9.21951V9.95122H10.2525V9.21951H10.9842ZM10.9842 8.48781V9.21951H10.2525V8.48781H10.9842ZM10.9842 7.7561V8.48781H10.2525V7.7561H10.9842ZM10.9842 7.02439V7.7561H10.2525V7.02439H10.9842ZM11.7159 7.02439V7.7561H10.9842V7.02439H11.7159ZM11.7159 7.7561V8.48781H10.9842V7.7561H11.7159ZM11.7159 8.48781V9.21951H10.9842V8.48781H11.7159ZM11.7159 9.21951V9.95122H10.9842V9.21951H11.7159ZM11.7159 9.95122V10.6829H10.9842V9.95122H11.7159ZM11.7159 10.6829V11.4146H10.9842V10.6829H11.7159ZM11.7159 11.4146V12.1463H10.9842V11.4146H11.7159ZM12.4476 12.1463V12.878H11.7159V12.1463H12.4476ZM12.4476 12.878V13.6098H11.7159V12.878H12.4476ZM12.4476 13.6098V14.3415H11.7159V13.6098H12.4476ZM12.4476 14.3415V15.0732H11.7159V14.3415H12.4476ZM12.4476 15.0732V15.8049H11.7159V15.0732H12.4476ZM12.4476 15.8049V16.5366H11.7159V15.8049H12.4476ZM12.4476 16.5366V17.2683H11.7159V16.5366H12.4476ZM12.4476 17.2683V18H11.7159V17.2683H12.4476ZM13.1793 17.2683V18H12.4476V17.2683H13.1793ZM13.911 17.2683V18H13.1793V17.2683H13.911ZM13.911 16.5366V17.2683H13.1793V16.5366H13.911ZM13.911 15.8049V16.5366H13.1793V15.8049H13.911ZM13.911 15.0732V15.8049H13.1793V15.0732H13.911ZM13.911 14.3415V15.0732H13.1793V14.3415H13.911ZM13.911 13.6098V14.3415H13.1793V13.6098H13.911ZM13.911 12.878V13.6098H13.1793V12.878H13.911ZM13.911 12.1463V12.878H13.1793V12.1463H13.911ZM13.1793 12.1463V12.878H12.4476V12.1463H13.1793ZM13.1793 11.4146V12.1463H12.4476V11.4146H13.1793ZM13.1793 12.878V13.6098H12.4476V12.878H13.1793ZM13.1793 13.6098V14.3415H12.4476V13.6098H13.1793ZM13.1793 14.3415V15.0732H12.4476V14.3415H13.1793ZM13.1793 15.0732V15.8049H12.4476V15.0732H13.1793ZM13.1793 15.8049V16.5366H12.4476V15.8049H13.1793ZM13.1793 16.5366V17.2683H12.4476V16.5366H13.1793ZM11.7159 17.2683V18H10.9842V17.2683H11.7159ZM11.7159 16.5366V17.2683H10.9842V16.5366H11.7159ZM11.7159 15.8049V16.5366H10.9842V15.8049H11.7159ZM11.7159 15.0732V15.8049H10.9842V15.0732H11.7159ZM11.7159 14.3415V15.0732H10.9842V14.3415H11.7159ZM11.7159 13.6098V14.3415H10.9842V13.6098H11.7159ZM11.7159 12.878V13.6098H10.9842V12.878H11.7159ZM11.7159 12.1463V12.878H10.9842V12.1463H11.7159ZM10.9842 4.09756V4.82927H10.2525V4.09756H10.9842ZM10.9842 4.82927V5.56098H10.2525V4.82927H10.9842ZM10.9842 5.56098V6.29268H10.2525V5.56098H10.9842ZM10.9842 6.29268V7.02439H10.2525V6.29268H10.9842ZM13.1793 4.82927V5.56098H12.4476V4.82927H13.1793ZM13.1793 5.56098V6.29268H12.4476V5.56098H13.1793ZM13.1793 6.29268V7.02439H12.4476V6.29268H13.1793ZM13.1793 7.02439V7.7561H12.4476V7.02439H13.1793ZM13.1793 7.7561V8.48781H12.4476V7.7561H13.1793ZM13.1793 8.48781V9.21951H12.4476V8.48781H13.1793ZM13.1793 9.21951V9.95122H12.4476V9.21951H13.1793ZM13.911 9.95122V10.6829H13.1793V9.95122H13.911ZM13.911 10.6829V11.4146H13.1793V10.6829H13.911ZM13.911 11.4146V12.1463H13.1793V11.4146H13.911ZM13.911 9.21951V9.95122H13.1793V9.21951H13.911ZM13.911 8.48781V9.21951H13.1793V8.48781H13.911ZM13.911 7.7561V8.48781H13.1793V7.7561H13.911ZM13.911 7.02439V7.7561H13.1793V7.02439H13.911ZM13.911 6.29268V7.02439H13.1793V6.29268H13.911ZM13.911 5.56098V6.29268H13.1793V5.56098H13.911ZM13.911 4.82927V5.56098H13.1793V4.82927H13.911ZM13.911 4.09756V4.82927H13.1793V4.09756H13.911ZM13.1793 4.09756V4.82927H12.4476V4.09756H13.1793ZM12.4476 4.09756V4.82927H11.7159V4.09756H12.4476ZM12.4476 4.82927V5.56098H11.7159V4.82927H12.4476ZM11.7159 5.56098V6.29268H10.9842V5.56098H11.7159ZM11.7159 6.29268V7.02439H10.9842V6.29268H11.7159ZM11.7159 4.82927V5.56098H10.9842V4.82927H11.7159ZM11.7159 4.09756V4.82927H10.9842V4.09756H11.7159ZM12.4476 5.56098V6.29268H11.7159V5.56098H12.4476ZM12.4476 6.29268V7.02439H11.7159V6.29268H12.4476ZM12.4476 7.02439V7.7561H11.7159V7.02439H12.4476ZM12.4476 7.7561V8.48781H11.7159V7.7561H12.4476ZM12.4476 8.48781V9.21951H11.7159V8.48781H12.4476ZM12.4476 9.21951V9.95122H11.7159V9.21951H12.4476ZM12.4476 9.95122V10.6829H11.7159V9.95122H12.4476ZM12.4476 10.6829V11.4146H11.7159V10.6829H12.4476ZM12.4476 11.4146V12.1463H11.7159V11.4146H12.4476ZM13.1793 10.6829V11.4146H12.4476V10.6829H13.1793ZM13.1793 9.95122V10.6829H12.4476V9.95122H13.1793ZM19.033 7.02439V7.7561H18.3013V7.02439H19.033ZM19.033 4.09756V4.82927H18.3013V4.09756H19.033ZM19.033 4.82927V5.56098H18.3013V4.82927H19.033ZM19.7647 4.82927V5.56098H19.033V4.82927H19.7647ZM20.4964 5.56098V6.29268H19.7647V5.56098H20.4964ZM19.7647 6.29268V7.02439H19.033V6.29268H19.7647ZM19.7647 5.56098V6.29268H19.033V5.56098H19.7647ZM19.033 5.56098V6.29268H18.3013V5.56098H19.033ZM18.3013 5.56098V6.29268H17.5695V5.56098H18.3013ZM18.3013 6.29268V7.02439H17.5695V6.29268H18.3013ZM19.033 6.29268V7.02439H18.3013V6.29268H19.033ZM18.3013 7.02439V7.7561H17.5695V7.02439H18.3013ZM17.5695 6.29268V7.02439H16.8378V6.29268H17.5695ZM17.5695 5.56098V6.29268H16.8378V5.56098H17.5695ZM17.5695 4.82927V5.56098H16.8378V4.82927H17.5695ZM17.5695 4.09756V4.82927H16.8378V4.09756H17.5695ZM18.3013 4.09756V4.82927H17.5695V4.09756H18.3013ZM18.3013 4.82927V5.56098H17.5695V4.82927H18.3013ZM16.8378 4.09756V4.82927H16.1061V4.09756H16.8378ZM16.8378 4.82927V5.56098H16.1061V4.82927H16.8378ZM16.8378 5.56098V6.29268H16.1061V5.56098H16.8378ZM16.8378 6.29268V7.02439H16.1061V6.29268H16.8378ZM16.1061 4.09756V4.82927H15.3744V4.09756H16.1061ZM16.1061 4.82927V5.56098H15.3744V4.82927H16.1061ZM15.3744 4.82927V5.56098H14.6427V4.82927H15.3744ZM15.3744 5.56098V6.29268H14.6427V5.56098H15.3744ZM14.6427 5.56098V6.29268H13.911V5.56098H14.6427ZM14.6427 6.29268V7.02439H13.911V6.29268H14.6427ZM15.3744 6.29268V7.02439H14.6427V6.29268H15.3744ZM16.1061 6.29268V7.02439H15.3744V6.29268H16.1061ZM16.1061 5.56098V6.29268H15.3744V5.56098H16.1061ZM14.6427 7.02439V7.7561H13.911V7.02439H14.6427ZM15.3744 4.09756V4.82927H14.6427V4.09756H15.3744ZM14.6427 4.82927V5.56098H13.911V4.82927H14.6427ZM17.5695 7.02439V7.7561H16.8378V7.02439H17.5695ZM18.3013 7.7561V8.48781H17.5695V7.7561H18.3013ZM32.2151 4.82927V4.09756H32.9468V4.82927H32.2151ZM32.2151 5.56098V4.82927H32.9468V5.56098H32.2151ZM32.2151 6.29268V5.56098H32.9468V6.29268H32.2151ZM32.2151 7.02439V6.29268H32.9468V7.02439H32.2151ZM32.2151 7.7561V7.02439H32.9468V7.7561H32.2151ZM32.2151 8.48781V7.7561H32.9468V8.48781H32.2151ZM32.2151 9.21951V8.48781H32.9468V9.21951H32.2151ZM32.2151 9.95122V9.21951H32.9468V9.95122H32.2151ZM32.2151 10.6829V9.95122H32.9468V10.6829H32.2151ZM32.2151 11.4146V10.6829H32.9468V11.4146H32.2151ZM32.2151 12.1463V11.4146H32.9468V12.1463H32.2151ZM32.2151 12.878V12.1463H32.9468V12.878H32.2151ZM32.2151 13.6098V12.878H32.9468V13.6098H32.2151ZM32.2151 14.3415V13.6098H32.9468V14.3415H32.2151ZM32.2151 15.0732V14.3415H32.9468V15.0732H32.2151ZM31.4834 15.0732V14.3415H32.2151V15.0732H31.4834ZM31.4834 14.3415V13.6098H32.2151V14.3415H31.4834ZM31.4834 13.6098V12.878H32.2151V13.6098H31.4834ZM31.4834 12.878V12.1463H32.2151V12.878H31.4834ZM31.4834 12.1463V11.4146H32.2151V12.1463H31.4834ZM31.4834 11.4146V10.6829H32.2151V11.4146H31.4834ZM31.4834 10.6829V9.95122H32.2151V10.6829H31.4834ZM30.7517 9.95122V9.21951H31.4834V9.95122H30.7517ZM30.7517 9.21951V8.48781H31.4834V9.21951H30.7517ZM30.7517 8.48781V7.7561H31.4834V8.48781H30.7517ZM30.7517 7.7561V7.02439H31.4834V7.7561H30.7517ZM30.7517 7.02439V6.29268H31.4834V7.02439H30.7517ZM30.7517 6.29268V5.56098H31.4834V6.29268H30.7517ZM30.7517 5.56098V4.82927H31.4834V5.56098H30.7517ZM30.7517 4.82927V4.09756H31.4834V4.82927H30.7517ZM30.02 4.82927V4.09756H30.7517V4.82927H30.02ZM29.2883 4.82927V4.09756H30.02V4.82927H29.2883ZM29.2883 5.56098V4.82927H30.02V5.56098H29.2883ZM29.2883 6.29268V5.56098H30.02V6.29268H29.2883ZM29.2883 7.02439V6.29268H30.02V7.02439H29.2883ZM29.2883 7.7561V7.02439H30.02V7.7561H29.2883ZM29.2883 8.48781V7.7561H30.02V8.48781H29.2883ZM29.2883 9.21951V8.48781H30.02V9.21951H29.2883ZM29.2883 9.95122V9.21951H30.02V9.95122H29.2883ZM30.02 9.95122V9.21951H30.7517V9.95122H30.02ZM30.02 10.6829V9.95122H30.7517V10.6829H30.02ZM30.02 9.21951V8.48781H30.7517V9.21951H30.02ZM30.02 8.48781V7.7561H30.7517V8.48781H30.02ZM30.02 7.7561V7.02439H30.7517V7.7561H30.02ZM30.02 7.02439V6.29268H30.7517V7.02439H30.02ZM30.02 6.29268V5.56098H30.7517V6.29268H30.02ZM30.02 5.56098V4.82927H30.7517V5.56098H30.02ZM31.4834 4.82927V4.09756H32.2151V4.82927H31.4834ZM31.4834 5.56098V4.82927H32.2151V5.56098H31.4834ZM31.4834 6.29268V5.56098H32.2151V6.29268H31.4834ZM31.4834 7.02439V6.29268H32.2151V7.02439H31.4834ZM31.4834 7.7561V7.02439H32.2151V7.7561H31.4834ZM31.4834 8.48781V7.7561H32.2151V8.48781H31.4834ZM31.4834 9.21951V8.48781H32.2151V9.21951H31.4834ZM31.4834 9.95122V9.21951H32.2151V9.95122H31.4834ZM32.2151 18V17.2683H32.9468V18H32.2151ZM32.2151 17.2683V16.5366H32.9468V17.2683H32.2151ZM32.2151 16.5366V15.8049H32.9468V16.5366H32.2151ZM32.2151 15.8049V15.0732H32.9468V15.8049H32.2151ZM30.02 17.2683V16.5366H30.7517V17.2683H30.02ZM30.02 16.5366V15.8049H30.7517V16.5366H30.02ZM30.02 15.8049V15.0732H30.7517V15.8049H30.02ZM30.02 15.0732V14.3415H30.7517V15.0732H30.02ZM30.02 14.3415V13.6098H30.7517V14.3415H30.02ZM30.02 13.6098V12.878H30.7517V13.6098H30.02ZM30.02 12.878V12.1463H30.7517V12.878H30.02ZM29.2883 12.1463V11.4146H30.02V12.1463H29.2883ZM29.2883 11.4146V10.6829H30.02V11.4146H29.2883ZM29.2883 10.6829V9.95122H30.02V10.6829H29.2883ZM29.2883 12.878V12.1463H30.02V12.878H29.2883ZM29.2883 13.6098V12.878H30.02V13.6098H29.2883ZM29.2883 14.3415V13.6098H30.02V14.3415H29.2883ZM29.2883 15.0732V14.3415H30.02V15.0732H29.2883ZM29.2883 15.8049V15.0732H30.02V15.8049H29.2883ZM29.2883 16.5366V15.8049H30.02V16.5366H29.2883ZM29.2883 17.2683V16.5366H30.02V17.2683H29.2883ZM29.2883 18V17.2683H30.02V18H29.2883ZM30.02 18V17.2683H30.7517V18H30.02ZM30.7517 18V17.2683H31.4834V18H30.7517ZM30.7517 17.2683V16.5366H31.4834V17.2683H30.7517ZM31.4834 16.5366V15.8049H32.2151V16.5366H31.4834ZM31.4834 15.8049V15.0732H32.2151V15.8049H31.4834ZM31.4834 17.2683V16.5366H32.2151V17.2683H31.4834ZM31.4834 18V17.2683H32.2151V18H31.4834ZM30.7517 16.5366V15.8049H31.4834V16.5366H30.7517ZM30.7517 15.8049V15.0732H31.4834V15.8049H30.7517ZM30.7517 15.0732V14.3415H31.4834V15.0732H30.7517ZM30.7517 14.3415V13.6098H31.4834V14.3415H30.7517ZM30.7517 13.6098V12.878H31.4834V13.6098H30.7517ZM30.7517 12.878V12.1463H31.4834V12.878H30.7517ZM30.7517 12.1463V11.4146H31.4834V12.1463H30.7517ZM30.7517 11.4146V10.6829H31.4834V11.4146H30.7517ZM30.7517 10.6829V9.95122H31.4834V10.6829H30.7517ZM30.02 11.4146V10.6829H30.7517V11.4146H30.02ZM30.02 12.1463V11.4146H30.7517V12.1463H30.02ZM24.1663 4.82927V4.09756H24.8981V4.82927H24.1663ZM23.4346 4.82927V4.09756H24.1663V4.82927H23.4346ZM22.7029 4.82927V4.09756H23.4346V4.82927H22.7029ZM21.9712 4.82927V4.09756H22.7029V4.82927H21.9712ZM21.2395 5.56098V4.82927H21.9712V5.56098H21.2395ZM21.2395 6.29268V5.56098H21.9712V6.29268H21.2395ZM21.2395 4.82927V4.09756H21.9712V4.82927H21.2395ZM21.9712 5.56098V4.82927H22.7029V5.56098H21.9712ZM22.7029 5.56098V4.82927H23.4346V5.56098H22.7029ZM23.4346 5.56098V4.82927H24.1663V5.56098H23.4346ZM24.1663 5.56098V4.82927H24.8981V5.56098H24.1663ZM24.1663 6.29268V5.56098H24.8981V6.29268H24.1663ZM24.1663 7.02439V6.29268H24.8981V7.02439H24.1663ZM23.4346 7.02439V6.29268H24.1663V7.02439H23.4346ZM22.7029 7.02439V6.29268H23.4346V7.02439H22.7029ZM21.9712 7.02439V6.29268H22.7029V7.02439H21.9712ZM21.2395 7.02439V6.29268H21.9712V7.02439H21.2395ZM21.9712 6.29268V5.56098H22.7029V6.29268H21.9712ZM22.7029 6.29268V5.56098H23.4346V6.29268H22.7029ZM23.4346 6.29268V5.56098H24.1663V6.29268H23.4346ZM21.2395 15.0732V14.3415H21.9712V15.0732H21.2395ZM21.9712 15.0732V14.3415H22.7029V15.0732H21.9712ZM23.4346 15.0732V14.3415H24.1663V15.0732H23.4346ZM23.4346 14.3415V13.6098H24.1663V14.3415H23.4346ZM23.4346 13.6098V12.878H24.1663V13.6098H23.4346ZM24.1663 12.878V12.1463H24.8981V12.878H24.1663ZM24.1663 12.1463V11.4146H24.8981V12.1463H24.1663ZM24.1663 11.4146V10.6829H24.8981V11.4146H24.1663ZM24.1663 10.6829V9.95122H24.8981V10.6829H24.1663ZM24.1663 9.95122V9.21951H24.8981V9.95122H24.1663ZM24.1663 9.21951V8.48781H24.8981V9.21951H24.1663ZM24.1663 8.48781V7.7561H24.8981V8.48781H24.1663ZM24.1663 7.7561V7.02439H24.8981V7.7561H24.1663ZM23.4346 7.7561V7.02439H24.1663V7.7561H23.4346ZM22.7029 7.7561V7.02439H23.4346V7.7561H22.7029ZM21.9712 7.7561V7.02439H22.7029V7.7561H21.9712ZM21.2395 7.7561V7.02439H21.9712V7.7561H21.2395ZM21.2395 8.48781V7.7561H21.9712V8.48781H21.2395ZM21.2395 9.95122V9.21951H21.9712V9.95122H21.2395ZM21.2395 10.6829V9.95122H21.9712V10.6829H21.2395ZM21.2395 11.4146V10.6829H21.9712V11.4146H21.2395ZM21.2395 12.1463V11.4146H21.9712V12.1463H21.2395ZM21.2395 12.878V12.1463H21.9712V12.878H21.2395ZM21.2395 13.6098V12.878H21.9712V13.6098H21.2395ZM21.2395 14.3415V13.6098H21.9712V14.3415H21.2395ZM21.9712 11.4146V10.6829H22.7029V11.4146H21.9712ZM21.9712 9.95122V9.21951H22.7029V9.95122H21.9712ZM21.9712 9.21951V8.48781H22.7029V9.21951H21.9712ZM21.9712 8.48781V7.7561H22.7029V8.48781H21.9712ZM21.2395 9.21951V8.48781H21.9712V9.21951H21.2395ZM21.9712 12.878V12.1463H22.7029V12.878H21.9712ZM22.7029 12.878V12.1463H23.4346V12.878H22.7029ZM23.4346 12.878V12.1463H24.1663V12.878H23.4346ZM23.4346 12.1463V11.4146H24.1663V12.1463H23.4346ZM23.4346 11.4146V10.6829H24.1663V11.4146H23.4346ZM23.4346 10.6829V9.95122H24.1663V10.6829H23.4346ZM23.4346 9.95122V9.21951H24.1663V9.95122H23.4346ZM23.4346 9.21951V8.48781H24.1663V9.21951H23.4346ZM23.4346 8.48781V7.7561H24.1663V8.48781H23.4346ZM22.7029 8.48781V7.7561H23.4346V8.48781H22.7029ZM22.7029 9.21951V8.48781H23.4346V9.21951H22.7029ZM22.7029 9.95122V9.21951H23.4346V9.95122H22.7029ZM22.7029 10.6829V9.95122H23.4346V10.6829H22.7029ZM22.7029 11.4146V10.6829H23.4346V11.4146H22.7029ZM22.7029 12.1463V11.4146H23.4346V12.1463H22.7029ZM21.9712 12.1463V11.4146H22.7029V12.1463H21.9712ZM21.9712 10.6829V9.95122H22.7029V10.6829H21.9712ZM21.9712 13.6098V12.878H22.7029V13.6098H21.9712ZM21.9712 14.3415V13.6098H22.7029V14.3415H21.9712ZM22.7029 14.3415V13.6098H23.4346V14.3415H22.7029ZM22.7029 13.6098V12.878H23.4346V13.6098H22.7029ZM24.1663 13.6098V12.878H24.8981V13.6098H24.1663ZM24.1663 14.3415V13.6098H24.8981V14.3415H24.1663ZM24.1663 15.0732V14.3415H24.8981V15.0732H24.1663ZM22.7029 15.0732V14.3415H23.4346V15.0732H22.7029ZM24.1663 18V17.2683H24.8981V18H24.1663ZM24.1663 17.2683V16.5366H24.8981V17.2683H24.1663ZM23.4346 17.2683V16.5366H24.1663V17.2683H23.4346ZM22.7029 17.2683V16.5366H23.4346V17.2683H22.7029ZM22.7029 16.5366V15.8049H23.4346V16.5366H22.7029ZM21.9712 16.5366V15.8049H22.7029V16.5366H21.9712ZM21.9712 15.8049V15.0732H22.7029V15.8049H21.9712ZM22.7029 15.8049V15.0732H23.4346V15.8049H22.7029ZM23.4346 15.8049V15.0732H24.1663V15.8049H23.4346ZM23.4346 16.5366V15.8049H24.1663V16.5366H23.4346ZM24.1663 16.5366V15.8049H24.8981V16.5366H24.1663ZM24.8981 16.5366V15.8049H25.6298V16.5366H24.8981ZM24.8981 15.8049V15.0732H25.6298V15.8049H24.8981ZM24.1663 15.8049V15.0732H24.8981V15.8049H24.1663ZM24.8981 15.0732V14.3415H25.6298V15.0732H24.8981ZM25.6298 15.8049V15.0732H26.3615V15.8049H25.6298ZM25.6298 16.5366V15.8049H26.3615V16.5366H25.6298ZM25.6298 17.2683V16.5366H26.3615V17.2683H25.6298ZM25.6298 18V17.2683H26.3615V18H25.6298ZM24.8981 18V17.2683H25.6298V18H24.8981ZM24.8981 17.2683V16.5366H25.6298V17.2683H24.8981ZM26.3615 18V17.2683H27.0932V18H26.3615ZM26.3615 17.2683V16.5366H27.0932V17.2683H26.3615ZM26.3615 16.5366V15.8049H27.0932V16.5366H26.3615ZM26.3615 15.8049V15.0732H27.0932V15.8049H26.3615ZM27.0932 18V17.2683H27.8249V18H27.0932ZM27.0932 17.2683V16.5366H27.8249V17.2683H27.0932ZM27.8249 17.2683V16.5366H28.5566V17.2683H27.8249ZM27.8249 16.5366V15.8049H28.5566V16.5366H27.8249ZM28.5566 16.5366V15.8049H29.2883V16.5366H28.5566ZM28.5566 15.8049V15.0732H29.2883V15.8049H28.5566ZM27.8249 15.8049V15.0732H28.5566V15.8049H27.8249ZM27.0932 15.8049V15.0732H27.8249V15.8049H27.0932ZM27.0932 16.5366V15.8049H27.8249V16.5366H27.0932ZM27.8249 18V17.2683H28.5566V18H27.8249ZM28.5566 17.2683V16.5366H29.2883V17.2683H28.5566ZM29.2883 14.3415V15.0732H28.5566V14.3415H29.2883ZM36.6189 17.2683V18H35.8872V17.2683H36.6189ZM36.6189 16.5366V17.2683H35.8872V16.5366H36.6189ZM36.6189 15.8049V16.5366H35.8872V15.8049H36.6189ZM36.6189 15.0732V15.8049H35.8872V15.0732H36.6189ZM36.6189 14.3415V15.0732H35.8872V14.3415H36.6189ZM36.6189 13.6098V14.3415H35.8872V13.6098H36.6189ZM36.6189 12.878V13.6098H35.8872V12.878H36.6189ZM36.6189 12.1463V12.878H35.8872V12.1463H36.6189ZM36.6189 11.4146V12.1463H35.8872V11.4146H36.6189ZM36.6189 10.6829V11.4146H35.8872V10.6829H36.6189ZM36.6189 9.95122V10.6829H35.8872V9.95122H36.6189ZM36.6189 9.21951V9.95122H35.8872V9.21951H36.6189ZM36.6189 8.48781V9.21951H35.8872V8.48781H36.6189ZM36.6189 7.7561V8.48781H35.8872V7.7561H36.6189ZM36.6189 7.02439V7.7561H35.8872V7.02439H36.6189ZM37.3507 7.02439V7.7561H36.6189V7.02439H37.3507ZM37.3507 7.7561V8.48781H36.6189V7.7561H37.3507ZM37.3507 8.48781V9.21951H36.6189V8.48781H37.3507ZM37.3507 9.21951V9.95122H36.6189V9.21951H37.3507ZM37.3507 9.95122V10.6829H36.6189V9.95122H37.3507ZM37.3507 10.6829V11.4146H36.6189V10.6829H37.3507ZM37.3507 11.4146V12.1463H36.6189V11.4146H37.3507ZM38.0824 12.1463V12.878H37.3507V12.1463H38.0824ZM38.0824 12.878V13.6098H37.3507V12.878H38.0824ZM38.0824 13.6098V14.3415H37.3507V13.6098H38.0824ZM38.0824 14.3415V15.0732H37.3507V14.3415H38.0824ZM38.0824 15.0732V15.8049H37.3507V15.0732H38.0824ZM38.0824 15.8049V16.5366H37.3507V15.8049H38.0824ZM38.0824 16.5366V17.2683H37.3507V16.5366H38.0824ZM38.0824 17.2683V18H37.3507V17.2683H38.0824ZM38.8141 17.2683V18H38.0824V17.2683H38.8141ZM39.5458 17.2683V18H38.8141V17.2683H39.5458ZM39.5458 16.5366V17.2683H38.8141V16.5366H39.5458ZM39.5458 15.8049V16.5366H38.8141V15.8049H39.5458ZM39.5458 15.0732V15.8049H38.8141V15.0732H39.5458ZM39.5458 14.3415V15.0732H38.8141V14.3415H39.5458ZM39.5458 13.6098V14.3415H38.8141V13.6098H39.5458ZM39.5458 12.878V13.6098H38.8141V12.878H39.5458ZM39.5458 12.1463V12.878H38.8141V12.1463H39.5458ZM38.8141 12.1463V12.878H38.0824V12.1463H38.8141ZM38.8141 11.4146V12.1463H38.0824V11.4146H38.8141ZM38.8141 12.878V13.6098H38.0824V12.878H38.8141ZM38.8141 13.6098V14.3415H38.0824V13.6098H38.8141ZM38.8141 14.3415V15.0732H38.0824V14.3415H38.8141ZM38.8141 15.0732V15.8049H38.0824V15.0732H38.8141ZM38.8141 15.8049V16.5366H38.0824V15.8049H38.8141ZM38.8141 16.5366V17.2683H38.0824V16.5366H38.8141ZM37.3507 17.2683V18H36.6189V17.2683H37.3507ZM37.3507 16.5366V17.2683H36.6189V16.5366H37.3507ZM37.3507 15.8049V16.5366H36.6189V15.8049H37.3507ZM37.3507 15.0732V15.8049H36.6189V15.0732H37.3507ZM37.3507 14.3415V15.0732H36.6189V14.3415H37.3507ZM37.3507 13.6098V14.3415H36.6189V13.6098H37.3507ZM37.3507 12.878V13.6098H36.6189V12.878H37.3507ZM37.3507 12.1463V12.878H36.6189V12.1463H37.3507ZM36.6189 4.09756V4.82927H35.8872V4.09756H36.6189ZM36.6189 4.82927V5.56098H35.8872V4.82927H36.6189ZM36.6189 5.56098V6.29268H35.8872V5.56098H36.6189ZM36.6189 6.29268V7.02439H35.8872V6.29268H36.6189ZM38.8141 4.82927V5.56098H38.0824V4.82927H38.8141ZM38.8141 5.56098V6.29268H38.0824V5.56098H38.8141ZM38.8141 6.29268V7.02439H38.0824V6.29268H38.8141ZM38.8141 7.02439V7.7561H38.0824V7.02439H38.8141ZM38.8141 7.7561V8.48781H38.0824V7.7561H38.8141ZM38.8141 8.48781V9.21951H38.0824V8.48781H38.8141ZM38.8141 9.21951V9.95122H38.0824V9.21951H38.8141ZM39.5458 9.95122V10.6829H38.8141V9.95122H39.5458ZM39.5458 10.6829V11.4146H38.8141V10.6829H39.5458ZM39.5458 11.4146V12.1463H38.8141V11.4146H39.5458ZM39.5458 9.21951V9.95122H38.8141V9.21951H39.5458ZM39.5458 8.48781V9.21951H38.8141V8.48781H39.5458ZM39.5458 7.7561V8.48781H38.8141V7.7561H39.5458ZM39.5458 7.02439V7.7561H38.8141V7.02439H39.5458ZM39.5458 6.29268V7.02439H38.8141V6.29268H39.5458ZM39.5458 5.56098V6.29268H38.8141V5.56098H39.5458ZM39.5458 4.82927V5.56098H38.8141V4.82927H39.5458ZM39.5458 4.09756V4.82927H38.8141V4.09756H39.5458ZM38.8141 4.09756V4.82927H38.0824V4.09756H38.8141ZM38.0824 4.09756V4.82927H37.3507V4.09756H38.0824ZM38.0824 4.82927V5.56098H37.3507V4.82927H38.0824ZM37.3507 5.56098V6.29268H36.6189V5.56098H37.3507ZM37.3507 6.29268V7.02439H36.6189V6.29268H37.3507ZM37.3507 4.82927V5.56098H36.6189V4.82927H37.3507ZM37.3507 4.09756V4.82927H36.6189V4.09756H37.3507ZM38.0824 5.56098V6.29268H37.3507V5.56098H38.0824ZM38.0824 6.29268V7.02439H37.3507V6.29268H38.0824ZM38.0824 7.02439V7.7561H37.3507V7.02439H38.0824ZM38.0824 7.7561V8.48781H37.3507V7.7561H38.0824ZM38.0824 8.48781V9.21951H37.3507V8.48781H38.0824ZM38.0824 9.21951V9.95122H37.3507V9.21951H38.0824ZM38.0824 9.95122V10.6829H37.3507V9.95122H38.0824ZM38.0824 10.6829V11.4146H37.3507V10.6829H38.0824ZM38.0824 11.4146V12.1463H37.3507V11.4146H38.0824ZM38.8141 10.6829V11.4146H38.0824V10.6829H38.8141ZM38.8141 9.95122V10.6829H38.0824V9.95122H38.8141ZM44.6677 17.2683V18H43.936V17.2683H44.6677ZM45.3994 17.2683V18H44.6677V17.2683H45.3994ZM46.1311 17.2683V18H45.3994V17.2683H46.1311ZM46.8629 17.2683V18H46.1311V17.2683H46.8629ZM47.5946 16.5366V17.2683H46.8629V16.5366H47.5946ZM47.5946 15.8049V16.5366H46.8629V15.8049H47.5946ZM47.5946 17.2683V18H46.8629V17.2683H47.5946ZM46.8629 16.5366V17.2683H46.1311V16.5366H46.8629ZM46.1311 16.5366V17.2683H45.3994V16.5366H46.1311ZM45.3994 16.5366V17.2683H44.6677V16.5366H45.3994ZM44.6677 16.5366V17.2683H43.936V16.5366H44.6677ZM44.6677 15.8049V16.5366H43.936V15.8049H44.6677ZM44.6677 15.0732V15.8049H43.936V15.0732H44.6677ZM45.3994 15.0732V15.8049H44.6677V15.0732H45.3994ZM46.1311 15.0732V15.8049H45.3994V15.0732H46.1311ZM46.8629 15.0732V15.8049H46.1311V15.0732H46.8629ZM47.5946 15.0732V15.8049H46.8629V15.0732H47.5946ZM46.8629 15.8049V16.5366H46.1311V15.8049H46.8629ZM46.1311 15.8049V16.5366H45.3994V15.8049H46.1311ZM45.3994 15.8049V16.5366H44.6677V15.8049H45.3994ZM47.5946 7.02439V7.7561H46.8629V7.02439H47.5946ZM46.8629 7.02439V7.7561H46.1311V7.02439H46.8629ZM45.3994 7.02439V7.7561H44.6677V7.02439H45.3994ZM45.3994 7.7561V8.48781H44.6677V7.7561H45.3994ZM45.3994 8.48781V9.21951H44.6677V8.48781H45.3994ZM44.6677 9.21951V9.95122H43.936V9.21951H44.6677ZM44.6677 9.95122V10.6829H43.936V9.95122H44.6677ZM44.6677 10.6829V11.4146H43.936V10.6829H44.6677ZM44.6677 11.4146V12.1463H43.936V11.4146H44.6677ZM44.6677 12.1463V12.878H43.936V12.1463H44.6677ZM44.6677 12.878V13.6098H43.936V12.878H44.6677ZM44.6677 13.6098V14.3415H43.936V13.6098H44.6677ZM44.6677 14.3415V15.0732H43.936V14.3415H44.6677ZM45.3994 14.3415V15.0732H44.6677V14.3415H45.3994ZM46.1311 14.3415V15.0732H45.3994V14.3415H46.1311ZM46.8629 14.3415V15.0732H46.1311V14.3415H46.8629ZM47.5946 14.3415V15.0732H46.8629V14.3415H47.5946ZM47.5946 13.6098V14.3415H46.8629V13.6098H47.5946ZM47.5946 12.1463V12.878H46.8629V12.1463H47.5946ZM47.5946 11.4146V12.1463H46.8629V11.4146H47.5946ZM47.5946 10.6829V11.4146H46.8629V10.6829H47.5946ZM47.5946 9.95122V10.6829H46.8629V9.95122H47.5946ZM47.5946 9.21951V9.95122H46.8629V9.21951H47.5946ZM47.5946 8.48781V9.21951H46.8629V8.48781H47.5946ZM47.5946 7.7561V8.48781H46.8629V7.7561H47.5946ZM46.8629 10.6829V11.4146H46.1311V10.6829H46.8629ZM46.8629 12.1463V12.878H46.1311V12.1463H46.8629ZM46.8629 12.878V13.6098H46.1311V12.878H46.8629ZM46.8629 13.6098V14.3415H46.1311V13.6098H46.8629ZM47.5946 12.878V13.6098H46.8629V12.878H47.5946ZM46.8629 9.21951V9.95122H46.1311V9.21951H46.8629ZM46.1311 9.21951V9.95122H45.3994V9.21951H46.1311ZM45.3994 9.21951V9.95122H44.6677V9.21951H45.3994ZM45.3994 9.95122V10.6829H44.6677V9.95122H45.3994ZM45.3994 10.6829V11.4146H44.6677V10.6829H45.3994ZM45.3994 11.4146V12.1463H44.6677V11.4146H45.3994ZM45.3994 12.1463V12.878H44.6677V12.1463H45.3994ZM45.3994 12.878V13.6098H44.6677V12.878H45.3994ZM45.3994 13.6098V14.3415H44.6677V13.6098H45.3994ZM46.1311 13.6098V14.3415H45.3994V13.6098H46.1311ZM46.1311 12.878V13.6098H45.3994V12.878H46.1311ZM46.1311 12.1463V12.878H45.3994V12.1463H46.1311ZM46.1311 11.4146V12.1463H45.3994V11.4146H46.1311ZM46.1311 10.6829V11.4146H45.3994V10.6829H46.1311ZM46.1311 9.95122V10.6829H45.3994V9.95122H46.1311ZM46.8629 9.95122V10.6829H46.1311V9.95122H46.8629ZM46.8629 11.4146V12.1463H46.1311V11.4146H46.8629ZM46.8629 8.48781V9.21951H46.1311V8.48781H46.8629ZM46.8629 7.7561V8.48781H46.1311V7.7561H46.8629ZM46.1311 7.7561V8.48781H45.3994V7.7561H46.1311ZM46.1311 8.48781V9.21951H45.3994V8.48781H46.1311ZM44.6677 8.48781V9.21951H43.936V8.48781H44.6677ZM44.6677 7.7561V8.48781H43.936V7.7561H44.6677ZM44.6677 7.02439V7.7561H43.936V7.02439H44.6677ZM46.1311 7.02439V7.7561H45.3994V7.02439H46.1311ZM44.6677 4.09756V4.82927H43.936V4.09756H44.6677ZM44.6677 4.82927V5.56098H43.936V4.82927H44.6677ZM45.3994 4.82927V5.56098H44.6677V4.82927H45.3994ZM46.1311 4.82927V5.56098H45.3994V4.82927H46.1311ZM46.1311 5.56098V6.29268H45.3994V5.56098H46.1311ZM46.8629 5.56098V6.29268H46.1311V5.56098H46.8629ZM46.8629 6.29268V7.02439H46.1311V6.29268H46.8629ZM46.1311 6.29268V7.02439H45.3994V6.29268H46.1311ZM45.3994 6.29268V7.02439H44.6677V6.29268H45.3994ZM45.3994 5.56098V6.29268H44.6677V5.56098H45.3994ZM44.6677 5.56098V6.29268H43.936V5.56098H44.6677ZM43.936 5.56098V6.29268H43.2043V5.56098H43.936ZM43.936 6.29268V7.02439H43.2043V6.29268H43.936ZM44.6677 6.29268V7.02439H43.936V6.29268H44.6677ZM43.936 7.02439V7.7561H43.2043V7.02439H43.936ZM43.2043 6.29268V7.02439H42.4726V6.29268H43.2043ZM43.2043 5.56098V6.29268H42.4726V5.56098H43.2043ZM43.2043 4.82927V5.56098H42.4726V4.82927H43.2043ZM43.2043 4.09756V4.82927H42.4726V4.09756H43.2043ZM43.936 4.09756V4.82927H43.2043V4.09756H43.936ZM43.936 4.82927V5.56098H43.2043V4.82927H43.936ZM42.4726 4.09756V4.82927H41.7409V4.09756H42.4726ZM42.4726 4.82927V5.56098H41.7409V4.82927H42.4726ZM42.4726 5.56098V6.29268H41.7409V5.56098H42.4726ZM42.4726 6.29268V7.02439H41.7409V6.29268H42.4726ZM41.7409 4.09756V4.82927H41.0092V4.09756H41.7409ZM41.7409 4.82927V5.56098H41.0092V4.82927H41.7409ZM41.0092 4.82927V5.56098H40.2775V4.82927H41.0092ZM41.0092 5.56098V6.29268H40.2775V5.56098H41.0092ZM40.2775 5.56098V6.29268H39.5458V5.56098H40.2775ZM40.2775 6.29268V7.02439H39.5458V6.29268H40.2775ZM41.0092 6.29268V7.02439H40.2775V6.29268H41.0092ZM41.7409 6.29268V7.02439H41.0092V6.29268H41.7409ZM41.7409 5.56098V6.29268H41.0092V5.56098H41.7409ZM40.2775 7.02439V7.7561H39.5458V7.02439H40.2775ZM41.0092 4.09756V4.82927H40.2775V4.09756H41.0092ZM40.2775 4.82927V5.56098H39.5458V4.82927H40.2775ZM57.852 8.48781V9.21951H57.1203V8.48781H57.852ZM58.5837 8.48781V9.21951H57.852V8.48781H58.5837ZM59.3155 8.48781V9.21951H58.5837V8.48781H59.3155ZM60.0472 8.48781V9.21951H59.3155V8.48781H60.0472ZM60.7789 8.48781V9.21951H60.0472V8.48781H60.7789ZM60.7789 7.7561V8.48781H60.0472V7.7561H60.7789ZM60.7789 7.02439V7.7561H60.0472V7.02439H60.7789ZM60.0472 7.02439V7.7561H59.3155V7.02439H60.0472ZM59.3155 7.02439V7.7561H58.5837V7.02439H59.3155ZM58.5837 7.02439V7.7561H57.852V7.02439H58.5837ZM58.5837 7.7561V8.48781H57.852V7.7561H58.5837ZM57.852 7.7561V8.48781H57.1203V7.7561H57.852ZM59.3155 7.7561V8.48781H58.5837V7.7561H59.3155ZM60.0472 7.7561V8.48781H59.3155V7.7561H60.0472ZM57.852 7.02439V7.7561H57.1203V7.02439H57.852ZM57.1203 7.02439V7.7561H56.3886V7.02439H57.1203ZM57.1203 6.29268V7.02439H56.3886V6.29268H57.1203ZM57.852 6.29268V7.02439H57.1203V6.29268H57.852ZM58.5837 6.29268V7.02439H57.852V6.29268H58.5837ZM59.3155 6.29268V7.02439H58.5837V6.29268H59.3155ZM60.0472 6.29268V7.02439H59.3155V6.29268H60.0472ZM60.0472 5.56098V6.29268H59.3155V5.56098H60.0472ZM59.3155 5.56098V6.29268H58.5837V5.56098H59.3155ZM58.5837 5.56098V6.29268H57.852V5.56098H58.5837ZM57.852 5.56098V6.29268H57.1203V5.56098H57.852ZM57.1203 5.56098V6.29268H56.3886V5.56098H57.1203ZM58.5837 4.82927V5.56098H57.852V4.82927H58.5837ZM59.3155 4.82927V5.56098H58.5837V4.82927H59.3155ZM57.852 4.82927V5.56098H57.1203V4.82927H57.852ZM57.852 4.09756V4.82927H57.1203V4.09756H57.852ZM57.1203 4.09756V4.82927H56.3886V4.09756H57.1203ZM57.1203 4.82927V5.56098H56.3886V4.82927H57.1203ZM56.3886 4.82927V5.56098H55.6569V4.82927H56.3886ZM56.3886 4.09756V4.82927H55.6569V4.09756H56.3886ZM56.3886 5.56098V6.29268H55.6569V5.56098H56.3886ZM55.6569 5.56098V6.29268H54.9252V5.56098H55.6569ZM55.6569 6.29268V7.02439H54.9252V6.29268H55.6569ZM56.3886 6.29268V7.02439H55.6569V6.29268H56.3886ZM54.9252 6.29268V7.02439H54.1935V6.29268H54.9252ZM54.9252 5.56098V6.29268H54.1935V5.56098H54.9252ZM54.9252 4.82927V5.56098H54.1935V4.82927H54.9252ZM54.9252 4.09756V4.82927H54.1935V4.09756H54.9252ZM55.6569 4.09756V4.82927H54.9252V4.09756H55.6569ZM55.6569 4.82927V5.56098H54.9252V4.82927H55.6569ZM54.1935 4.09756V4.82927H53.4618V4.09756H54.1935ZM53.4618 4.09756V4.82927H52.7301V4.09756H53.4618ZM52.7301 4.09756V4.82927H51.9984V4.09756H52.7301ZM52.7301 4.82927V5.56098H51.9984V4.82927H52.7301ZM52.7301 5.56098V6.29268H51.9984V5.56098H52.7301ZM52.7301 6.29268V7.02439H51.9984V6.29268H52.7301ZM53.4618 6.29268V7.02439H52.7301V6.29268H53.4618ZM54.1935 6.29268V7.02439H53.4618V6.29268H54.1935ZM54.1935 5.56098V6.29268H53.4618V5.56098H54.1935ZM54.1935 4.82927V5.56098H53.4618V4.82927H54.1935ZM53.4618 4.82927V5.56098H52.7301V4.82927H53.4618ZM53.4618 5.56098V6.29268H52.7301V5.56098H53.4618ZM51.9984 5.56098V6.29268H51.2667V5.56098H51.9984ZM51.9984 4.82927V5.56098H51.2667V4.82927H51.9984ZM51.2667 4.82927V5.56098H50.535V4.82927H51.2667ZM51.2667 5.56098V6.29268H50.535V5.56098H51.2667ZM50.535 5.56098V6.29268H49.8033V5.56098H50.535ZM50.535 6.29268V7.02439H49.8033V6.29268H50.535ZM50.535 7.02439V7.7561H49.8033V7.02439H50.535ZM51.2667 7.02439V7.7561H50.535V7.02439H51.2667ZM51.2667 6.29268V7.02439H50.535V6.29268H51.2667ZM51.9984 6.29268V7.02439H51.2667V6.29268H51.9984ZM51.9984 7.02439V7.7561H51.2667V7.02439H51.9984ZM52.7301 7.02439V7.7561H51.9984V7.02439H52.7301ZM53.4618 7.02439V7.7561H52.7301V7.02439H53.4618ZM49.8033 7.02439V7.7561H49.0716V7.02439H49.8033ZM49.8033 7.7561V8.48781H49.0716V7.7561H49.8033ZM49.8033 8.48781V9.21951H49.0716V8.48781H49.8033ZM49.8033 9.21951V9.95122H49.0716V9.21951H49.8033ZM49.8033 9.95122V10.6829H49.0716V9.95122H49.8033ZM49.8033 10.6829V11.4146H49.0716V10.6829H49.8033ZM49.8033 11.4146V12.1463H49.0716V11.4146H49.8033ZM49.8033 12.1463V12.878H49.0716V12.1463H49.8033ZM49.8033 12.878V13.6098H49.0716V12.878H49.8033ZM49.8033 13.6098V14.3415H49.0716V13.6098H49.8033ZM50.535 13.6098V14.3415H49.8033V13.6098H50.535ZM50.535 14.3415V15.0732H49.8033V14.3415H50.535ZM49.8033 14.3415V15.0732H49.0716V14.3415H49.8033ZM51.2667 14.3415V15.0732H50.535V14.3415H51.2667ZM51.9984 14.3415V15.0732H51.2667V14.3415H51.9984ZM52.7301 14.3415V15.0732H51.9984V14.3415H52.7301ZM53.4618 14.3415V15.0732H52.7301V14.3415H53.4618ZM52.7301 13.6098V14.3415H51.9984V13.6098H52.7301ZM52.7301 12.878V13.6098H51.9984V12.878H52.7301ZM52.7301 12.1463V12.878H51.9984V12.1463H52.7301ZM52.7301 11.4146V12.1463H51.9984V11.4146H52.7301ZM52.7301 10.6829V11.4146H51.9984V10.6829H52.7301ZM52.7301 9.95122V10.6829H51.9984V9.95122H52.7301ZM52.7301 9.21951V9.95122H51.9984V9.21951H52.7301ZM52.7301 8.48781V9.21951H51.9984V8.48781H52.7301ZM52.7301 7.7561V8.48781H51.9984V7.7561H52.7301ZM51.9984 7.7561V8.48781H51.2667V7.7561H51.9984ZM51.2667 7.7561V8.48781H50.535V7.7561H51.2667ZM50.535 7.7561V8.48781H49.8033V7.7561H50.535ZM50.535 8.48781V9.21951H49.8033V8.48781H50.535ZM50.535 9.21951V9.95122H49.8033V9.21951H50.535ZM50.535 9.95122V10.6829H49.8033V9.95122H50.535ZM50.535 10.6829V11.4146H49.8033V10.6829H50.535ZM50.535 11.4146V12.1463H49.8033V11.4146H50.535ZM50.535 12.1463V12.878H49.8033V12.1463H50.535ZM50.535 12.878V13.6098H49.8033V12.878H50.535ZM51.2667 13.6098V14.3415H50.535V13.6098H51.2667ZM51.9984 13.6098V14.3415H51.2667V13.6098H51.9984ZM51.9984 12.878V13.6098H51.2667V12.878H51.9984ZM51.9984 12.1463V12.878H51.2667V12.1463H51.9984ZM51.9984 11.4146V12.1463H51.2667V11.4146H51.9984ZM51.9984 10.6829V11.4146H51.2667V10.6829H51.9984ZM51.2667 10.6829V11.4146H50.535V10.6829H51.2667ZM51.2667 9.95122V10.6829H50.535V9.95122H51.2667ZM51.2667 9.21951V9.95122H50.535V9.21951H51.2667ZM51.2667 8.48781V9.21951H50.535V8.48781H51.2667ZM51.9984 8.48781V9.21951H51.2667V8.48781H51.9984ZM51.9984 9.21951V9.95122H51.2667V9.21951H51.9984ZM51.9984 9.95122V10.6829H51.2667V9.95122H51.9984ZM51.2667 12.1463V12.878H50.535V12.1463H51.2667ZM51.2667 12.878V13.6098H50.535V12.878H51.2667ZM51.2667 11.4146V12.1463H50.535V11.4146H51.2667ZM57.852 12.878V13.6098H57.1203V12.878H57.852ZM57.852 13.6098V14.3415H57.1203V13.6098H57.852ZM58.5837 13.6098V14.3415H57.852V13.6098H58.5837ZM59.3155 13.6098V14.3415H58.5837V13.6098H59.3155ZM60.0472 13.6098V14.3415H59.3155V13.6098H60.0472ZM60.7789 13.6098V14.3415H60.0472V13.6098H60.7789ZM60.7789 12.878V13.6098H60.0472V12.878H60.7789ZM60.0472 12.878V13.6098H59.3155V12.878H60.0472ZM59.3155 12.878V13.6098H58.5837V12.878H59.3155ZM58.5837 12.878V13.6098H57.852V12.878H58.5837ZM60.7789 14.3415V15.0732H60.0472V14.3415H60.7789ZM60.0472 14.3415V15.0732H59.3155V14.3415H60.0472ZM59.3155 14.3415V15.0732H58.5837V14.3415H59.3155ZM58.5837 14.3415V15.0732H57.852V14.3415H58.5837ZM57.852 14.3415V15.0732H57.1203V14.3415H57.852ZM57.1203 14.3415V15.0732H56.3886V14.3415H57.1203ZM57.1203 15.0732V15.8049H56.3886V15.0732H57.1203ZM57.852 15.0732V15.8049H57.1203V15.0732H57.852ZM58.5837 15.0732V15.8049H57.852V15.0732H58.5837ZM59.3155 15.0732V15.8049H58.5837V15.0732H59.3155ZM59.3155 15.8049V16.5366H58.5837V15.8049H59.3155ZM60.0472 15.8049V16.5366H59.3155V15.8049H60.0472ZM60.0472 15.0732V15.8049H59.3155V15.0732H60.0472ZM59.3155 16.5366V17.2683H58.5837V16.5366H59.3155ZM58.5837 16.5366V17.2683H57.852V16.5366H58.5837ZM58.5837 15.8049V16.5366H57.852V15.8049H58.5837ZM57.852 15.8049V16.5366H57.1203V15.8049H57.852ZM57.852 16.5366V17.2683H57.1203V16.5366H57.852ZM57.852 17.2683V18H57.1203V17.2683H57.852ZM57.1203 17.2683V18H56.3886V17.2683H57.1203ZM56.3886 17.2683V18H55.6569V17.2683H56.3886ZM55.6569 17.2683V18H54.9252V17.2683H55.6569ZM54.9252 17.2683V18H54.1935V17.2683H54.9252ZM54.1935 17.2683V18H53.4618V17.2683H54.1935ZM53.4618 17.2683V18H52.7301V17.2683H53.4618ZM52.7301 17.2683V18H51.9984V17.2683H52.7301ZM53.4618 16.5366V17.2683H52.7301V16.5366H53.4618ZM54.1935 16.5366V17.2683H53.4618V16.5366H54.1935ZM54.9252 16.5366V17.2683H54.1935V16.5366H54.9252ZM55.6569 16.5366V17.2683H54.9252V16.5366H55.6569ZM56.3886 16.5366V17.2683H55.6569V16.5366H56.3886ZM57.1203 16.5366V17.2683H56.3886V16.5366H57.1203ZM57.1203 15.8049V16.5366H56.3886V15.8049H57.1203ZM56.3886 15.8049V16.5366H55.6569V15.8049H56.3886ZM55.6569 15.8049V16.5366H54.9252V15.8049H55.6569ZM54.9252 15.8049V16.5366H54.1935V15.8049H54.9252ZM54.1935 15.8049V16.5366H53.4618V15.8049H54.1935ZM53.4618 15.8049V16.5366H52.7301V15.8049H53.4618ZM52.7301 16.5366V17.2683H51.9984V16.5366H52.7301ZM51.9984 16.5366V17.2683H51.2667V16.5366H51.9984ZM51.2667 16.5366V17.2683H50.535V16.5366H51.2667ZM51.2667 15.8049V16.5366H50.535V15.8049H51.2667ZM50.535 15.8049V16.5366H49.8033V15.8049H50.535ZM50.535 15.0732V15.8049H49.8033V15.0732H50.535ZM51.2667 15.0732V15.8049H50.535V15.0732H51.2667ZM51.9984 15.0732V15.8049H51.2667V15.0732H51.9984ZM52.7301 15.0732V15.8049H51.9984V15.0732H52.7301ZM53.4618 15.0732V15.8049H52.7301V15.0732H53.4618ZM54.1935 15.0732V15.8049H53.4618V15.0732H54.1935ZM54.9252 15.0732V15.8049H54.1935V15.0732H54.9252ZM55.6569 15.0732V15.8049H54.9252V15.0732H55.6569ZM56.3886 15.0732V15.8049H55.6569V15.0732H56.3886ZM52.7301 15.8049V16.5366H51.9984V15.8049H52.7301ZM51.9984 15.8049V16.5366H51.2667V15.8049H51.9984ZM57.852 9.21951V9.95122H57.1203V9.21951H57.852ZM57.852 9.95122V10.6829H57.1203V9.95122H57.852ZM58.5837 9.95122V10.6829H57.852V9.95122H58.5837ZM59.3155 9.95122V10.6829H58.5837V9.95122H59.3155ZM60.0472 9.95122V10.6829H59.3155V9.95122H60.0472ZM60.7789 9.95122V10.6829H60.0472V9.95122H60.7789ZM60.7789 9.21951V9.95122H60.0472V9.21951H60.7789ZM60.0472 9.21951V9.95122H59.3155V9.21951H60.0472ZM59.3155 9.21951V9.95122H58.5837V9.21951H59.3155ZM58.5837 9.21951V9.95122H57.852V9.21951H58.5837ZM58.5837 10.6829V11.4146H57.852V10.6829H58.5837ZM59.3155 10.6829V11.4146H58.5837V10.6829H59.3155ZM59.3155 11.4146V12.1463H58.5837V11.4146H59.3155ZM60.0472 11.4146V12.1463H59.3155V11.4146H60.0472ZM60.0472 10.6829V11.4146H59.3155V10.6829H60.0472ZM60.7789 10.6829V11.4146H60.0472V10.6829H60.7789ZM60.7789 11.4146V12.1463H60.0472V11.4146H60.7789ZM60.7789 12.1463V12.878H60.0472V12.1463H60.7789ZM60.0472 12.1463V12.878H59.3155V12.1463H60.0472ZM59.3155 12.1463V12.878H58.5837V12.1463H59.3155ZM58.5837 12.1463V12.878H57.852V12.1463H58.5837ZM58.5837 11.4146V12.1463H57.852V11.4146H58.5837ZM57.852 11.4146V12.1463H57.1203V11.4146H57.852ZM57.852 10.6829V11.4146H57.1203V10.6829H57.852ZM57.852 12.1463V12.878H57.1203V12.1463H57.852ZM66.6454 1.17073V1.90244H65.9137V1.17073H66.6454ZM66.6454 1.90244V2.63415H65.9137V1.90244H66.6454ZM66.6454 2.63415V3.36585H65.9137V2.63415H66.6454ZM66.6454 3.36585V4.09756H65.9137V3.36585H66.6454ZM66.6454 4.09756V4.82927H65.9137V4.09756H66.6454ZM66.6454 4.82927V5.56098H65.9137V4.82927H66.6454ZM66.6454 5.56098V6.29268H65.9137V5.56098H66.6454ZM66.6454 6.29268V7.02439H65.9137V6.29268H66.6454ZM67.3771 6.29268V7.02439H66.6454V6.29268H67.3771ZM68.1088 6.29268V7.02439H67.3771V6.29268H68.1088ZM68.8405 6.29268V7.02439H68.1088V6.29268H68.8405ZM69.5722 6.29268V7.02439H68.8405V6.29268H69.5722ZM66.6454 7.7561V8.48781H65.9137V7.7561H66.6454ZM65.9137 7.7561V8.48781H65.182V7.7561H65.9137ZM65.9137 7.02439V7.7561H65.182V7.02439H65.9137ZM66.6454 7.02439V7.7561H65.9137V7.02439H66.6454ZM66.6454 8.48781V9.21951H65.9137V8.48781H66.6454ZM65.9137 8.48781V9.21951H65.182V8.48781H65.9137ZM65.182 8.48781V9.21951H64.4503V8.48781H65.182ZM64.4503 8.48781V9.21951H63.7186V8.48781H64.4503ZM63.7186 8.48781V9.21951H62.9869V8.48781H63.7186ZM62.2551 6.29268V7.02439H61.5234V6.29268H62.2551ZM62.9869 6.29268V7.02439H62.2551V6.29268H62.9869ZM63.7186 6.29268V7.02439H62.9869V6.29268H63.7186ZM64.4503 6.29268V7.02439H63.7186V6.29268H64.4503ZM65.182 6.29268V7.02439H64.4503V6.29268H65.182ZM65.9137 6.29268V7.02439H65.182V6.29268H65.9137ZM65.182 7.7561V8.48781H64.4503V7.7561H65.182ZM65.182 7.02439V7.7561H64.4503V7.02439H65.182ZM64.4503 7.02439V7.7561H63.7186V7.02439H64.4503ZM63.7186 7.02439V7.7561H62.9869V7.02439H63.7186ZM63.7186 7.7561V8.48781H62.9869V7.7561H63.7186ZM64.4503 7.7561V8.48781H63.7186V7.7561H64.4503ZM65.9137 1.90244V2.63415H65.182V1.90244H65.9137ZM65.9137 2.63415V3.36585H65.182V2.63415H65.9137ZM65.182 2.63415V3.36585H64.4503V2.63415H65.182ZM65.182 3.36585V4.09756H64.4503V3.36585H65.182ZM65.182 4.09756V4.82927H64.4503V4.09756H65.182ZM64.4503 3.36585V4.09756H63.7186V3.36585H64.4503ZM64.4503 4.09756V4.82927H63.7186V4.09756H64.4503ZM63.7186 4.09756V4.82927H62.9869V4.09756H63.7186ZM63.7186 4.82927V5.56098H62.9869V4.82927H63.7186ZM63.7186 5.56098V6.29268H62.9869V5.56098H63.7186ZM65.182 5.56098V6.29268H64.4503V5.56098H65.182ZM65.9137 5.56098V6.29268H65.182V5.56098H65.9137ZM65.9137 4.82927V5.56098H65.182V4.82927H65.9137ZM65.9137 4.09756V4.82927H65.182V4.09756H65.9137ZM65.9137 3.36585V4.09756H65.182V3.36585H65.9137ZM65.182 4.82927V5.56098H64.4503V4.82927H65.182ZM64.4503 5.56098V6.29268H63.7186V5.56098H64.4503ZM64.4503 4.82927V5.56098H63.7186V4.82927H64.4503ZM69.5722 15.0732V15.8049H68.8405V15.0732H69.5722ZM69.5722 15.8049V16.5366H68.8405V15.8049H69.5722ZM69.5722 17.2683V18H68.8405V17.2683H69.5722ZM68.8405 17.2683V18H68.1088V17.2683H68.8405ZM68.1088 17.2683V18H67.3771V17.2683H68.1088ZM67.3771 17.2683V18H66.6454V17.2683H67.3771ZM66.6454 17.2683V18H65.9137V17.2683H66.6454ZM66.6454 16.5366V17.2683H65.9137V16.5366H66.6454ZM65.9137 16.5366V17.2683H65.182V16.5366H65.9137ZM65.182 16.5366V17.2683H64.4503V16.5366H65.182ZM65.182 15.8049V16.5366H64.4503V15.8049H65.182ZM64.4503 15.8049V16.5366H63.7186V15.8049H64.4503ZM64.4503 15.0732V15.8049H63.7186V15.0732H64.4503ZM64.4503 14.3415V15.0732H63.7186V14.3415H64.4503ZM63.7186 14.3415V15.0732H62.9869V14.3415H63.7186ZM63.7186 13.6098V14.3415H62.9869V13.6098H63.7186ZM63.7186 12.878V13.6098H62.9869V12.878H63.7186ZM63.7186 12.1463V12.878H62.9869V12.1463H63.7186ZM63.7186 11.4146V12.1463H62.9869V11.4146H63.7186ZM63.7186 10.6829V11.4146H62.9869V10.6829H63.7186ZM63.7186 9.95122V10.6829H62.9869V9.95122H63.7186ZM63.7186 9.21951V9.95122H62.9869V9.21951H63.7186ZM64.4503 9.21951V9.95122H63.7186V9.21951H64.4503ZM65.182 9.21951V9.95122H64.4503V9.21951H65.182ZM65.9137 9.21951V9.95122H65.182V9.21951H65.9137ZM66.6454 9.21951V9.95122H65.9137V9.21951H66.6454ZM66.6454 9.95122V10.6829H65.9137V9.95122H66.6454ZM66.6454 10.6829V11.4146H65.9137V10.6829H66.6454ZM66.6454 11.4146V12.1463H65.9137V11.4146H66.6454ZM66.6454 12.1463V12.878H65.9137V12.1463H66.6454ZM66.6454 12.878V13.6098H65.9137V12.878H66.6454ZM66.6454 13.6098V14.3415H65.9137V13.6098H66.6454ZM66.6454 14.3415V15.0732H65.9137V14.3415H66.6454ZM67.3771 14.3415V15.0732H66.6454V14.3415H67.3771ZM67.3771 15.0732V15.8049H66.6454V15.0732H67.3771ZM68.1088 15.0732V15.8049H67.3771V15.0732H68.1088ZM68.1088 15.8049V16.5366H67.3771V15.8049H68.1088ZM68.8405 15.8049V16.5366H68.1088V15.8049H68.8405ZM68.8405 15.0732V15.8049H68.1088V15.0732H68.8405ZM69.5722 16.5366V17.2683H68.8405V16.5366H69.5722ZM68.8405 16.5366V17.2683H68.1088V16.5366H68.8405ZM68.1088 16.5366V17.2683H67.3771V16.5366H68.1088ZM67.3771 16.5366V17.2683H66.6454V16.5366H67.3771ZM67.3771 15.8049V16.5366H66.6454V15.8049H67.3771ZM66.6454 15.8049V16.5366H65.9137V15.8049H66.6454ZM66.6454 15.0732V15.8049H65.9137V15.0732H66.6454ZM65.9137 15.0732V15.8049H65.182V15.0732H65.9137ZM65.9137 15.8049V16.5366H65.182V15.8049H65.9137ZM65.182 15.0732V15.8049H64.4503V15.0732H65.182ZM65.9137 14.3415V15.0732H65.182V14.3415H65.9137ZM65.9137 13.6098V14.3415H65.182V13.6098H65.9137ZM65.182 14.3415V15.0732H64.4503V14.3415H65.182ZM65.182 13.6098V14.3415H64.4503V13.6098H65.182ZM65.9137 12.878V13.6098H65.182V12.878H65.9137ZM65.9137 12.1463V12.878H65.182V12.1463H65.9137ZM65.9137 11.4146V12.1463H65.182V11.4146H65.9137ZM65.9137 10.6829V11.4146H65.182V10.6829H65.9137ZM65.9137 9.95122V10.6829H65.182V9.95122H65.9137ZM65.182 9.95122V10.6829H64.4503V9.95122H65.182ZM64.4503 9.95122V10.6829H63.7186V9.95122H64.4503ZM64.4503 10.6829V11.4146H63.7186V10.6829H64.4503ZM64.4503 11.4146V12.1463H63.7186V11.4146H64.4503ZM64.4503 12.1463V12.878H63.7186V12.1463H64.4503ZM64.4503 12.878V13.6098H63.7186V12.878H64.4503ZM64.4503 13.6098V14.3415H63.7186V13.6098H64.4503ZM65.182 12.878V13.6098H64.4503V12.878H65.182ZM65.182 12.1463V12.878H64.4503V12.1463H65.182ZM65.182 11.4146V12.1463H64.4503V11.4146H65.182ZM65.182 10.6829V11.4146H64.4503V10.6829H65.182ZM69.5722 4.82927V5.56098H68.8405V4.82927H69.5722ZM68.8405 4.82927V5.56098H68.1088V4.82927H68.8405ZM68.8405 5.56098V6.29268H68.1088V5.56098H68.8405ZM69.5722 5.56098V6.29268H68.8405V5.56098H69.5722ZM68.1088 5.56098V6.29268H67.3771V5.56098H68.1088ZM67.3771 5.56098V6.29268H66.6454V5.56098H67.3771ZM67.3771 4.82927V5.56098H66.6454V4.82927H67.3771ZM68.1088 4.82927V5.56098H67.3771V4.82927H68.1088ZM63.7186 3.36585V4.09756H62.9869V3.36585H63.7186ZM64.4503 2.63415V3.36585H63.7186V2.63415H64.4503ZM65.182 1.90244V2.63415H64.4503V1.90244H65.182ZM65.9137 1.17073V1.90244H65.182V1.17073H65.9137ZM62.9869 4.82927V5.56098H62.2551V4.82927H62.9869ZM62.9869 5.56098V6.29268H62.2551V5.56098H62.9869ZM62.2551 5.56098V6.29268H61.5234V5.56098H62.2551ZM62.2551 4.82927V5.56098H61.5234V4.82927H62.2551ZM66.6454 0.439025V1.17073H65.9137V0.439025H66.6454ZM62.2551 7.02439V7.7561H61.5234V7.02439H62.2551ZM62.9869 7.02439V7.7561H62.2551V7.02439H62.9869ZM67.3771 7.02439V7.7561H66.6454V7.02439H67.3771ZM68.1088 7.02439V7.7561H67.3771V7.02439H68.1088ZM68.8405 7.02439V7.7561H68.1088V7.02439H68.8405ZM69.5722 7.02439V7.7561H68.8405V7.02439H69.5722ZM79.8247 8.48781V9.21951H79.093V8.48781H79.8247ZM80.5564 8.48781V9.21951H79.8247V8.48781H80.5564ZM81.2881 8.48781V9.21951H80.5564V8.48781H81.2881ZM82.0198 8.48781V9.21951H81.2881V8.48781H82.0198ZM82.7515 8.48781V9.21951H82.0198V8.48781H82.7515ZM82.7515 7.7561V8.48781H82.0198V7.7561H82.7515ZM82.7515 7.02439V7.7561H82.0198V7.02439H82.7515ZM82.0198 7.02439V7.7561H81.2881V7.02439H82.0198ZM81.2881 7.02439V7.7561H80.5564V7.02439H81.2881ZM80.5564 7.02439V7.7561H79.8247V7.02439H80.5564ZM80.5564 7.7561V8.48781H79.8247V7.7561H80.5564ZM79.8247 7.7561V8.48781H79.093V7.7561H79.8247ZM81.2881 7.7561V8.48781H80.5564V7.7561H81.2881ZM82.0198 7.7561V8.48781H81.2881V7.7561H82.0198ZM79.8247 7.02439V7.7561H79.093V7.02439H79.8247ZM79.093 7.02439V7.7561H78.3613V7.02439H79.093ZM79.093 6.29268V7.02439H78.3613V6.29268H79.093ZM79.8247 6.29268V7.02439H79.093V6.29268H79.8247ZM80.5564 6.29268V7.02439H79.8247V6.29268H80.5564ZM81.2881 6.29268V7.02439H80.5564V6.29268H81.2881ZM82.0198 6.29268V7.02439H81.2881V6.29268H82.0198ZM82.0198 5.56098V6.29268H81.2881V5.56098H82.0198ZM81.2881 5.56098V6.29268H80.5564V5.56098H81.2881ZM80.5564 5.56098V6.29268H79.8247V5.56098H80.5564ZM79.8247 5.56098V6.29268H79.093V5.56098H79.8247ZM79.093 5.56098V6.29268H78.3613V5.56098H79.093ZM80.5564 4.82927V5.56098H79.8247V4.82927H80.5564ZM81.2881 4.82927V5.56098H80.5564V4.82927H81.2881ZM79.8247 4.82927V5.56098H79.093V4.82927H79.8247ZM79.8247 4.09756V4.82927H79.093V4.09756H79.8247ZM79.093 4.09756V4.82927H78.3613V4.09756H79.093ZM79.093 4.82927V5.56098H78.3613V4.82927H79.093ZM78.3613 4.82927V5.56098H77.6296V4.82927H78.3613ZM78.3613 4.09756V4.82927H77.6296V4.09756H78.3613ZM78.3613 5.56098V6.29268H77.6296V5.56098H78.3613ZM77.6296 5.56098V6.29268H76.8979V5.56098H77.6296ZM77.6296 6.29268V7.02439H76.8979V6.29268H77.6296ZM78.3613 6.29268V7.02439H77.6296V6.29268H78.3613ZM76.8979 6.29268V7.02439H76.1662V6.29268H76.8979ZM76.8979 5.56098V6.29268H76.1662V5.56098H76.8979ZM76.8979 4.82927V5.56098H76.1662V4.82927H76.8979ZM76.8979 4.09756V4.82927H76.1662V4.09756H76.8979ZM77.6296 4.09756V4.82927H76.8979V4.09756H77.6296ZM77.6296 4.82927V5.56098H76.8979V4.82927H77.6296ZM76.1662 4.09756V4.82927H75.4345V4.09756H76.1662ZM75.4345 4.09756V4.82927H74.7027V4.09756H75.4345ZM74.7027 4.09756V4.82927H73.971V4.09756H74.7027ZM74.7027 4.82927V5.56098H73.971V4.82927H74.7027ZM74.7027 5.56098V6.29268H73.971V5.56098H74.7027ZM74.7027 6.29268V7.02439H73.971V6.29268H74.7027ZM75.4345 6.29268V7.02439H74.7027V6.29268H75.4345ZM76.1662 6.29268V7.02439H75.4345V6.29268H76.1662ZM76.1662 5.56098V6.29268H75.4345V5.56098H76.1662ZM76.1662 4.82927V5.56098H75.4345V4.82927H76.1662ZM75.4345 4.82927V5.56098H74.7027V4.82927H75.4345ZM75.4345 5.56098V6.29268H74.7027V5.56098H75.4345ZM73.971 5.56098V6.29268H73.2393V5.56098H73.971ZM73.971 4.82927V5.56098H73.2393V4.82927H73.971ZM73.2393 4.82927V5.56098H72.5076V4.82927H73.2393ZM73.2393 5.56098V6.29268H72.5076V5.56098H73.2393ZM72.5076 5.56098V6.29268H71.7759V5.56098H72.5076ZM72.5076 6.29268V7.02439H71.7759V6.29268H72.5076ZM72.5076 7.02439V7.7561H71.7759V7.02439H72.5076ZM73.2393 7.02439V7.7561H72.5076V7.02439H73.2393ZM73.2393 6.29268V7.02439H72.5076V6.29268H73.2393ZM73.971 6.29268V7.02439H73.2393V6.29268H73.971ZM73.971 7.02439V7.7561H73.2393V7.02439H73.971ZM74.7027 7.02439V7.7561H73.971V7.02439H74.7027ZM75.4345 7.02439V7.7561H74.7027V7.02439H75.4345ZM71.7759 7.02439V7.7561H71.0442V7.02439H71.7759ZM71.7759 7.7561V8.48781H71.0442V7.7561H71.7759ZM71.7759 8.48781V9.21951H71.0442V8.48781H71.7759ZM71.7759 9.21951V9.95122H71.0442V9.21951H71.7759ZM71.7759 9.95122V10.6829H71.0442V9.95122H71.7759ZM71.7759 10.6829V11.4146H71.0442V10.6829H71.7759ZM71.7759 11.4146V12.1463H71.0442V11.4146H71.7759ZM71.7759 12.1463V12.878H71.0442V12.1463H71.7759ZM71.7759 12.878V13.6098H71.0442V12.878H71.7759ZM71.7759 13.6098V14.3415H71.0442V13.6098H71.7759ZM72.5076 13.6098V14.3415H71.7759V13.6098H72.5076ZM72.5076 14.3415V15.0732H71.7759V14.3415H72.5076ZM71.7759 14.3415V15.0732H71.0442V14.3415H71.7759ZM73.2393 14.3415V15.0732H72.5076V14.3415H73.2393ZM73.971 14.3415V15.0732H73.2393V14.3415H73.971ZM74.7027 14.3415V15.0732H73.971V14.3415H74.7027ZM75.4345 14.3415V15.0732H74.7027V14.3415H75.4345ZM74.7027 13.6098V14.3415H73.971V13.6098H74.7027ZM74.7027 12.878V13.6098H73.971V12.878H74.7027ZM74.7027 12.1463V12.878H73.971V12.1463H74.7027ZM74.7027 11.4146V12.1463H73.971V11.4146H74.7027ZM74.7027 10.6829V11.4146H73.971V10.6829H74.7027ZM74.7027 9.95122V10.6829H73.971V9.95122H74.7027ZM74.7027 9.21951V9.95122H73.971V9.21951H74.7027ZM74.7027 8.48781V9.21951H73.971V8.48781H74.7027ZM74.7027 7.7561V8.48781H73.971V7.7561H74.7027ZM73.971 7.7561V8.48781H73.2393V7.7561H73.971ZM73.2393 7.7561V8.48781H72.5076V7.7561H73.2393ZM72.5076 7.7561V8.48781H71.7759V7.7561H72.5076ZM72.5076 8.48781V9.21951H71.7759V8.48781H72.5076ZM72.5076 9.21951V9.95122H71.7759V9.21951H72.5076ZM72.5076 9.95122V10.6829H71.7759V9.95122H72.5076ZM72.5076 10.6829V11.4146H71.7759V10.6829H72.5076ZM72.5076 11.4146V12.1463H71.7759V11.4146H72.5076ZM72.5076 12.1463V12.878H71.7759V12.1463H72.5076ZM72.5076 12.878V13.6098H71.7759V12.878H72.5076ZM73.2393 13.6098V14.3415H72.5076V13.6098H73.2393ZM73.971 13.6098V14.3415H73.2393V13.6098H73.971ZM73.971 12.878V13.6098H73.2393V12.878H73.971ZM73.971 12.1463V12.878H73.2393V12.1463H73.971ZM73.971 11.4146V12.1463H73.2393V11.4146H73.971ZM73.971 10.6829V11.4146H73.2393V10.6829H73.971ZM73.2393 10.6829V11.4146H72.5076V10.6829H73.2393ZM73.2393 9.95122V10.6829H72.5076V9.95122H73.2393ZM73.2393 9.21951V9.95122H72.5076V9.21951H73.2393ZM73.2393 8.48781V9.21951H72.5076V8.48781H73.2393ZM73.971 8.48781V9.21951H73.2393V8.48781H73.971ZM73.971 9.21951V9.95122H73.2393V9.21951H73.971ZM73.971 9.95122V10.6829H73.2393V9.95122H73.971ZM73.2393 12.1463V12.878H72.5076V12.1463H73.2393ZM73.2393 12.878V13.6098H72.5076V12.878H73.2393ZM73.2393 11.4146V12.1463H72.5076V11.4146H73.2393ZM79.8247 13.6098V14.3415H79.093V13.6098H79.8247ZM80.5564 13.6098V14.3415H79.8247V13.6098H80.5564ZM81.2881 13.6098V14.3415H80.5564V13.6098H81.2881ZM82.0198 13.6098V14.3415H81.2881V13.6098H82.0198ZM82.7515 13.6098V14.3415H82.0198V13.6098H82.7515ZM82.7515 14.3415V15.0732H82.0198V14.3415H82.7515ZM82.0198 14.3415V15.0732H81.2881V14.3415H82.0198ZM81.2881 14.3415V15.0732H80.5564V14.3415H81.2881ZM80.5564 14.3415V15.0732H79.8247V14.3415H80.5564ZM79.8247 14.3415V15.0732H79.093V14.3415H79.8247ZM79.093 14.3415V15.0732H78.3613V14.3415H79.093ZM79.093 15.0732V15.8049H78.3613V15.0732H79.093ZM79.8247 15.0732V15.8049H79.093V15.0732H79.8247ZM80.5564 15.0732V15.8049H79.8247V15.0732H80.5564ZM81.2881 15.0732V15.8049H80.5564V15.0732H81.2881ZM81.2881 15.8049V16.5366H80.5564V15.8049H81.2881ZM82.0198 15.8049V16.5366H81.2881V15.8049H82.0198ZM82.0198 15.0732V15.8049H81.2881V15.0732H82.0198ZM81.2881 16.5366V17.2683H80.5564V16.5366H81.2881ZM80.5564 16.5366V17.2683H79.8247V16.5366H80.5564ZM80.5564 15.8049V16.5366H79.8247V15.8049H80.5564ZM79.8247 15.8049V16.5366H79.093V15.8049H79.8247ZM79.8247 16.5366V17.2683H79.093V16.5366H79.8247ZM79.8247 17.2683V18H79.093V17.2683H79.8247ZM79.093 17.2683V18H78.3613V17.2683H79.093ZM78.3613 17.2683V18H77.6296V17.2683H78.3613ZM77.6296 17.2683V18H76.8979V17.2683H77.6296ZM76.8979 17.2683V18H76.1662V17.2683H76.8979ZM76.1662 17.2683V18H75.4345V17.2683H76.1662ZM75.4345 17.2683V18H74.7027V17.2683H75.4345ZM74.7027 17.2683V18H73.971V17.2683H74.7027ZM75.4345 16.5366V17.2683H74.7027V16.5366H75.4345ZM76.1662 16.5366V17.2683H75.4345V16.5366H76.1662ZM76.8979 16.5366V17.2683H76.1662V16.5366H76.8979ZM77.6296 16.5366V17.2683H76.8979V16.5366H77.6296ZM78.3613 16.5366V17.2683H77.6296V16.5366H78.3613ZM79.093 16.5366V17.2683H78.3613V16.5366H79.093ZM79.093 15.8049V16.5366H78.3613V15.8049H79.093ZM78.3613 15.8049V16.5366H77.6296V15.8049H78.3613ZM77.6296 15.8049V16.5366H76.8979V15.8049H77.6296ZM76.8979 15.8049V16.5366H76.1662V15.8049H76.8979ZM76.1662 15.8049V16.5366H75.4345V15.8049H76.1662ZM75.4345 15.8049V16.5366H74.7027V15.8049H75.4345ZM74.7027 16.5366V17.2683H73.971V16.5366H74.7027ZM73.971 16.5366V17.2683H73.2393V16.5366H73.971ZM73.2393 16.5366V17.2683H72.5076V16.5366H73.2393ZM73.2393 15.8049V16.5366H72.5076V15.8049H73.2393ZM72.5076 15.8049V16.5366H71.7759V15.8049H72.5076ZM72.5076 15.0732V15.8049H71.7759V15.0732H72.5076ZM73.2393 15.0732V15.8049H72.5076V15.0732H73.2393ZM73.971 15.0732V15.8049H73.2393V15.0732H73.971ZM74.7027 15.0732V15.8049H73.971V15.0732H74.7027ZM75.4345 15.0732V15.8049H74.7027V15.0732H75.4345ZM76.1662 15.0732V15.8049H75.4345V15.0732H76.1662ZM76.8979 15.0732V15.8049H76.1662V15.0732H76.8979ZM77.6296 15.0732V15.8049H76.8979V15.0732H77.6296ZM78.3613 15.0732V15.8049H77.6296V15.0732H78.3613ZM74.7027 15.8049V16.5366H73.971V15.8049H74.7027ZM73.971 15.8049V16.5366H73.2393V15.8049H73.971ZM82.7515 9.21951V9.95122H82.0198V9.21951H82.7515ZM82.0198 9.21951V9.95122H81.2881V9.21951H82.0198ZM81.2881 9.21951V9.95122H80.5564V9.21951H81.2881ZM80.5564 9.21951V9.95122H79.8247V9.21951H80.5564ZM79.8247 9.21951V9.95122H79.093V9.21951H79.8247ZM82.7515 9.95122V10.6829H82.0198V9.95122H82.7515ZM81.2881 9.95122V10.6829H80.5564V9.95122H81.2881ZM80.5564 9.95122V10.6829H79.8247V9.95122H80.5564ZM79.093 9.95122V10.6829H78.3613V9.95122H79.093ZM78.3613 9.95122V10.6829H77.6296V9.95122H78.3613ZM77.6296 9.95122V10.6829H76.8979V9.95122H77.6296ZM76.8979 9.95122V10.6829H76.1662V9.95122H76.8979ZM76.1662 9.95122V10.6829H75.4345V9.95122H76.1662ZM75.4345 9.95122V10.6829H74.7027V9.95122H75.4345ZM79.8247 9.95122V10.6829H79.093V9.95122H79.8247ZM82.0198 9.95122V10.6829H81.2881V9.95122H82.0198ZM82.7515 10.6829V11.4146H82.0198V10.6829H82.7515ZM82.0198 10.6829V11.4146H81.2881V10.6829H82.0198ZM81.2881 10.6829V11.4146H80.5564V10.6829H81.2881ZM80.5564 10.6829V11.4146H79.8247V10.6829H80.5564ZM79.8247 10.6829V11.4146H79.093V10.6829H79.8247ZM79.093 10.6829V11.4146H78.3613V10.6829H79.093ZM78.3613 10.6829V11.4146H77.6296V10.6829H78.3613ZM77.6296 10.6829V11.4146H76.8979V10.6829H77.6296ZM76.8979 10.6829V11.4146H76.1662V10.6829H76.8979ZM76.1662 10.6829V11.4146H75.4345V10.6829H76.1662ZM75.4345 10.6829V11.4146H74.7027V10.6829H75.4345ZM75.4345 11.4146V12.1463H74.7027V11.4146H75.4345ZM76.1662 11.4146V12.1463H75.4345V11.4146H76.1662ZM76.8979 11.4146V12.1463H76.1662V11.4146H76.8979ZM78.3613 11.4146V12.1463H77.6296V11.4146H78.3613ZM79.093 11.4146V12.1463H78.3613V11.4146H79.093ZM79.8247 11.4146V12.1463H79.093V11.4146H79.8247ZM80.5564 11.4146V12.1463H79.8247V11.4146H80.5564ZM81.2881 11.4146V12.1463H80.5564V11.4146H81.2881ZM82.0198 11.4146V12.1463H81.2881V11.4146H82.0198ZM82.7515 11.4146V12.1463H82.0198V11.4146H82.7515ZM77.6296 11.4146V12.1463H76.8979V11.4146H77.6296ZM95.2034 7.02439V7.7561H94.4717V7.02439H95.2034ZM94.4717 7.02439V7.7561H93.74V7.02439H94.4717ZM93.74 7.02439V7.7561H93.0083V7.02439H93.74ZM93.0083 7.02439V7.7561H92.2766V7.02439H93.0083ZM92.2766 6.29268V7.02439H91.5449V6.29268H92.2766ZM93.0083 6.29268V7.02439H92.2766V6.29268H93.0083ZM93.74 6.29268V7.02439H93.0083V6.29268H93.74ZM94.4717 6.29268V7.02439H93.74V6.29268H94.4717ZM95.2034 6.29268V7.02439H94.4717V6.29268H95.2034ZM95.2034 5.56098V6.29268H94.4717V5.56098H95.2034ZM94.4717 5.56098V6.29268H93.74V5.56098H94.4717ZM93.74 5.56098V6.29268H93.0083V5.56098H93.74ZM93.0083 5.56098V6.29268H92.2766V5.56098H93.0083ZM92.2766 5.56098V6.29268H91.5449V5.56098H92.2766ZM93.74 4.82927V5.56098H93.0083V4.82927H93.74ZM94.4717 4.82927V5.56098H93.74V4.82927H94.4717ZM93.0083 4.82927V5.56098H92.2766V4.82927H93.0083ZM93.0083 4.09756V4.82927H92.2766V4.09756H93.0083ZM92.2766 4.09756V4.82927H91.5449V4.09756H92.2766ZM92.2766 4.82927V5.56098H91.5449V4.82927H92.2766ZM91.5449 4.82927V5.56098H90.8132V4.82927H91.5449ZM91.5449 4.09756V4.82927H90.8132V4.09756H91.5449ZM91.5449 5.56098V6.29268H90.8132V5.56098H91.5449ZM90.8132 5.56098V6.29268H90.0815V5.56098H90.8132ZM90.8132 6.29268V7.02439H90.0815V6.29268H90.8132ZM91.5449 6.29268V7.02439H90.8132V6.29268H91.5449ZM90.0815 6.29268V7.02439H89.3498V6.29268H90.0815ZM90.0815 5.56098V6.29268H89.3498V5.56098H90.0815ZM90.0815 4.82927V5.56098H89.3498V4.82927H90.0815ZM90.0815 4.09756V4.82927H89.3498V4.09756H90.0815ZM90.8132 4.09756V4.82927H90.0815V4.09756H90.8132ZM90.8132 4.82927V5.56098H90.0815V4.82927H90.8132ZM89.3498 4.09756V4.82927H88.618V4.09756H89.3498ZM88.618 4.09756V4.82927H87.8863V4.09756H88.618ZM87.8863 4.09756V4.82927H87.1546V4.09756H87.8863ZM87.8863 4.82927V5.56098H87.1546V4.82927H87.8863ZM87.8863 5.56098V6.29268H87.1546V5.56098H87.8863ZM87.8863 6.29268V7.02439H87.1546V6.29268H87.8863ZM88.618 6.29268V7.02439H87.8863V6.29268H88.618ZM89.3498 6.29268V7.02439H88.618V6.29268H89.3498ZM89.3498 5.56098V6.29268H88.618V5.56098H89.3498ZM89.3498 4.82927V5.56098H88.618V4.82927H89.3498ZM88.618 4.82927V5.56098H87.8863V4.82927H88.618ZM88.618 5.56098V6.29268H87.8863V5.56098H88.618ZM87.1546 5.56098V6.29268H86.4229V5.56098H87.1546ZM87.1546 4.82927V5.56098H86.4229V4.82927H87.1546ZM86.4229 4.82927V5.56098H85.6912V4.82927H86.4229ZM86.4229 5.56098V6.29268H85.6912V5.56098H86.4229ZM85.6912 5.56098V6.29268H84.9595V5.56098H85.6912ZM85.6912 6.29268V7.02439H84.9595V6.29268H85.6912ZM85.6912 7.02439V7.7561H84.9595V7.02439H85.6912ZM86.4229 7.02439V7.7561H85.6912V7.02439H86.4229ZM86.4229 6.29268V7.02439H85.6912V6.29268H86.4229ZM87.1546 6.29268V7.02439H86.4229V6.29268H87.1546ZM87.1546 7.02439V7.7561H86.4229V7.02439H87.1546ZM87.8863 7.02439V7.7561H87.1546V7.02439H87.8863ZM88.618 7.02439V7.7561H87.8863V7.02439H88.618ZM84.9595 7.02439V7.7561H84.2278V7.02439H84.9595ZM84.9595 7.7561V8.48781H84.2278V7.7561H84.9595ZM84.9595 8.48781V9.21951H84.2278V8.48781H84.9595ZM84.9595 13.6098V14.3415H84.2278V13.6098H84.9595ZM85.6912 13.6098V14.3415H84.9595V13.6098H85.6912ZM85.6912 14.3415V15.0732H84.9595V14.3415H85.6912ZM84.9595 14.3415V15.0732H84.2278V14.3415H84.9595ZM86.4229 14.3415V15.0732H85.6912V14.3415H86.4229ZM87.1546 14.3415V15.0732H86.4229V14.3415H87.1546ZM87.8863 14.3415V15.0732H87.1546V14.3415H87.8863ZM88.618 14.3415V15.0732H87.8863V14.3415H88.618ZM87.8863 13.6098V14.3415H87.1546V13.6098H87.8863ZM87.8863 8.48781V9.21951H87.1546V8.48781H87.8863ZM87.8863 7.7561V8.48781H87.1546V7.7561H87.8863ZM87.1546 7.7561V8.48781H86.4229V7.7561H87.1546ZM86.4229 7.7561V8.48781H85.6912V7.7561H86.4229ZM85.6912 7.7561V8.48781H84.9595V7.7561H85.6912ZM85.6912 8.48781V9.21951H84.9595V8.48781H85.6912ZM86.4229 13.6098V14.3415H85.6912V13.6098H86.4229ZM87.1546 13.6098V14.3415H86.4229V13.6098H87.1546ZM86.4229 8.48781V9.21951H85.6912V8.48781H86.4229ZM87.1546 8.48781V9.21951H86.4229V8.48781H87.1546ZM93.0083 12.878V13.6098H92.2766V12.878H93.0083ZM93.0083 13.6098V14.3415H92.2766V13.6098H93.0083ZM93.74 13.6098V14.3415H93.0083V13.6098H93.74ZM94.4717 13.6098V14.3415H93.74V13.6098H94.4717ZM95.2034 13.6098V14.3415H94.4717V13.6098H95.2034ZM95.9351 13.6098V14.3415H95.2034V13.6098H95.9351ZM95.9351 12.878V13.6098H95.2034V12.878H95.9351ZM95.2034 12.878V13.6098H94.4717V12.878H95.2034ZM94.4717 12.878V13.6098H93.74V12.878H94.4717ZM93.74 12.878V13.6098H93.0083V12.878H93.74ZM95.9351 14.3415V15.0732H95.2034V14.3415H95.9351ZM95.2034 14.3415V15.0732H94.4717V14.3415H95.2034ZM94.4717 14.3415V15.0732H93.74V14.3415H94.4717ZM93.74 14.3415V15.0732H93.0083V14.3415H93.74ZM93.0083 14.3415V15.0732H92.2766V14.3415H93.0083ZM92.2766 14.3415V15.0732H91.5449V14.3415H92.2766ZM92.2766 15.0732V15.8049H91.5449V15.0732H92.2766ZM93.0083 15.0732V15.8049H92.2766V15.0732H93.0083ZM93.74 15.0732V15.8049H93.0083V15.0732H93.74ZM94.4717 15.0732V15.8049H93.74V15.0732H94.4717ZM94.4717 15.8049V16.5366H93.74V15.8049H94.4717ZM95.2034 15.8049V16.5366H94.4717V15.8049H95.2034ZM95.2034 15.0732V15.8049H94.4717V15.0732H95.2034ZM94.4717 16.5366V17.2683H93.74V16.5366H94.4717ZM93.74 16.5366V17.2683H93.0083V16.5366H93.74ZM93.74 15.8049V16.5366H93.0083V15.8049H93.74ZM93.0083 15.8049V16.5366H92.2766V15.8049H93.0083ZM93.0083 16.5366V17.2683H92.2766V16.5366H93.0083ZM93.0083 17.2683V18H92.2766V17.2683H93.0083ZM92.2766 17.2683V18H91.5449V17.2683H92.2766ZM91.5449 17.2683V18H90.8132V17.2683H91.5449ZM90.8132 17.2683V18H90.0815V17.2683H90.8132ZM90.0815 17.2683V18H89.3498V17.2683H90.0815ZM89.3498 17.2683V18H88.618V17.2683H89.3498ZM88.618 17.2683V18H87.8863V17.2683H88.618ZM87.8863 17.2683V18H87.1546V17.2683H87.8863ZM88.618 16.5366V17.2683H87.8863V16.5366H88.618ZM89.3498 16.5366V17.2683H88.618V16.5366H89.3498ZM90.0815 16.5366V17.2683H89.3498V16.5366H90.0815ZM90.8132 16.5366V17.2683H90.0815V16.5366H90.8132ZM91.5449 16.5366V17.2683H90.8132V16.5366H91.5449ZM92.2766 16.5366V17.2683H91.5449V16.5366H92.2766ZM92.2766 15.8049V16.5366H91.5449V15.8049H92.2766ZM91.5449 15.8049V16.5366H90.8132V15.8049H91.5449ZM90.8132 15.8049V16.5366H90.0815V15.8049H90.8132ZM90.0815 15.8049V16.5366H89.3498V15.8049H90.0815ZM89.3498 15.8049V16.5366H88.618V15.8049H89.3498ZM88.618 15.8049V16.5366H87.8863V15.8049H88.618ZM87.8863 16.5366V17.2683H87.1546V16.5366H87.8863ZM87.1546 16.5366V17.2683H86.4229V16.5366H87.1546ZM86.4229 16.5366V17.2683H85.6912V16.5366H86.4229ZM86.4229 15.8049V16.5366H85.6912V15.8049H86.4229ZM85.6912 15.8049V16.5366H84.9595V15.8049H85.6912ZM85.6912 15.0732V15.8049H84.9595V15.0732H85.6912ZM86.4229 15.0732V15.8049H85.6912V15.0732H86.4229ZM87.1546 15.0732V15.8049H86.4229V15.0732H87.1546ZM87.8863 15.0732V15.8049H87.1546V15.0732H87.8863ZM88.618 15.0732V15.8049H87.8863V15.0732H88.618ZM89.3498 15.0732V15.8049H88.618V15.0732H89.3498ZM90.0815 15.0732V15.8049H89.3498V15.0732H90.0815ZM90.8132 15.0732V15.8049H90.0815V15.0732H90.8132ZM91.5449 15.0732V15.8049H90.8132V15.0732H91.5449ZM87.8863 15.8049V16.5366H87.1546V15.8049H87.8863ZM87.1546 15.8049V16.5366H86.4229V15.8049H87.1546ZM94.4717 11.4146V12.1463H93.74V11.4146H94.4717ZM95.9351 12.1463V12.878H95.2034V12.1463H95.9351ZM95.2034 12.1463V12.878H94.4717V12.1463H95.2034ZM94.4717 12.1463V12.878H93.74V12.1463H94.4717ZM93.74 12.1463V12.878H93.0083V12.1463H93.74ZM93.74 11.4146V12.1463H93.0083V11.4146H93.74ZM93.0083 11.4146V12.1463H92.2766V11.4146H93.0083ZM93.0083 12.1463V12.878H92.2766V12.1463H93.0083ZM88.618 8.48781V9.21951H87.8863V8.48781H88.618ZM85.6912 9.21951V9.95122H84.9595V9.21951H85.6912ZM85.6912 9.95122V10.6829H84.9595V9.95122H85.6912ZM86.4229 9.95122V10.6829H85.6912V9.95122H86.4229ZM86.4229 10.6829V11.4146H85.6912V10.6829H86.4229ZM87.1546 10.6829V11.4146H86.4229V10.6829H87.1546ZM87.8863 11.4146V12.1463H87.1546V11.4146H87.8863ZM87.8863 10.6829V11.4146H87.1546V10.6829H87.8863ZM87.8863 9.95122V10.6829H87.1546V9.95122H87.8863ZM87.8863 9.21951V9.95122H87.1546V9.21951H87.8863ZM87.1546 9.21951V9.95122H86.4229V9.21951H87.1546ZM87.1546 9.95122V10.6829H86.4229V9.95122H87.1546ZM86.4229 9.21951V9.95122H85.6912V9.21951H86.4229ZM88.618 11.4146V12.1463H87.8863V11.4146H88.618ZM89.3498 11.4146V12.1463H88.618V11.4146H89.3498ZM90.0815 11.4146V12.1463H89.3498V11.4146H90.0815ZM90.8132 11.4146V12.1463H90.0815V11.4146H90.8132ZM90.8132 10.6829V11.4146H90.0815V10.6829H90.8132ZM90.0815 10.6829V11.4146H89.3498V10.6829H90.0815ZM89.3498 10.6829V11.4146H88.618V10.6829H89.3498ZM88.618 10.6829V11.4146H87.8863V10.6829H88.618ZM88.618 9.95122V10.6829H87.8863V9.95122H88.618ZM88.618 9.21951V9.95122H87.8863V9.21951H88.618ZM89.3498 9.21951V9.95122H88.618V9.21951H89.3498ZM90.0815 9.21951V9.95122H89.3498V9.21951H90.0815ZM90.8132 9.21951V9.95122H90.0815V9.21951H90.8132ZM90.8132 9.95122V10.6829H90.0815V9.95122H90.8132ZM90.0815 9.95122V10.6829H89.3498V9.95122H90.0815ZM89.3498 9.95122V10.6829H88.618V9.95122H89.3498ZM91.5449 9.21951V9.95122H90.8132V9.21951H91.5449ZM92.2766 9.21951V9.95122H91.5449V9.21951H92.2766ZM92.2766 9.95122V10.6829H91.5449V9.95122H92.2766ZM92.2766 10.6829V11.4146H91.5449V10.6829H92.2766ZM92.2766 11.4146V12.1463H91.5449V11.4146H92.2766ZM91.5449 11.4146V12.1463H90.8132V11.4146H91.5449ZM91.5449 10.6829V11.4146H90.8132V10.6829H91.5449ZM91.5449 9.95122V10.6829H90.8132V9.95122H91.5449ZM92.2766 12.1463V12.878H91.5449V12.1463H92.2766ZM93.0083 9.21951V9.95122H92.2766V9.21951H93.0083ZM95.2034 11.4146V12.1463H94.4717V11.4146H95.2034ZM95.2034 10.6829V11.4146H94.4717V10.6829H95.2034ZM94.4717 9.95122V10.6829H93.74V9.95122H94.4717ZM93.74 9.95122V10.6829H93.0083V9.95122H93.74ZM93.0083 9.95122V10.6829H92.2766V9.95122H93.0083ZM93.0083 10.6829V11.4146H92.2766V10.6829H93.0083ZM93.74 10.6829V11.4146H93.0083V10.6829H93.74ZM94.4717 10.6829V11.4146H93.74V10.6829H94.4717ZM92.2766 7.02439V7.7561H91.5449V7.02439H92.2766Z" fill="white"/>
</svg>
